<svg xmlns="http://www.w3.org/2000/svg" viewBox="0 0 193.36 193.36"><defs><style>.cls-1{fill:#72a182;}</style></defs><title>Asset 1</title><g id="Layer_2" data-name="Layer 2"><g id="GLOBAL"><path class="cls-1" d="M96.68,0A96.68,96.68,0,1,1,0,96.58,96.64,96.64,0,0,1,96.68,0Zm8.88,155.86V96.23h16.72c.72-7,1.43-13.87,2.17-21.07h-19c0-4.06,0-7.82,0-11.58,0-4.88,1.67-6.5,6.53-6.51H124V36.72c-7.53,0-14.94-.4-22.28.09-10.69.72-18.11,7.6-20.19,18.12a58.38,58.38,0,0,0-.79,9.27c-.13,3.6,0,7.2,0,11.09H69V96.35H80.77v59.51Z"/></g></g></svg>