<svg xmlns="http://www.w3.org/2000/svg" viewBox="0 0 203 203"><defs><style>.cls-1{fill:#72a182;}</style></defs><title>Asset 3</title><g id="Layer_2" data-name="Layer 2"><g id="GLOBAL"><path class="cls-1" d="M203,101.47A101.67,101.67,0,0,1,101.49,203C45.55,203-.06,157.35,0,101.45A101.68,101.68,0,0,1,101.43,0C157.33-.08,203,45.53,203,101.47Zm-101.66,57.8c11.42,0,22.85,0,34.27,0a29.38,29.38,0,0,0,5.63-.47c10.73-2.21,17.93-11,18-22.29.09-23.29,0-46.59,0-69.88a23.12,23.12,0,0,0-.42-4.63c-2.22-11.08-11.19-18.21-22.95-18.22q-34.35,0-68.72,0a28.27,28.27,0,0,0-5.29.45C51,46.4,43.8,55.34,43.77,66.77c-.05,23.13,0,46.26,0,69.39a22.25,22.25,0,0,0,2.07,10c4.31,8.71,11.42,13,21.07,13.08C78.37,159.32,89.85,159.27,101.34,159.27Z"/><path class="cls-1" d="M55.12,89.7H72c-4.7,15.81-1.33,29.15,12.7,38.32,11.32,7.41,23.48,7.17,34.53-.59,13.24-9.29,16.45-22.35,11.75-37.69h16.89c0,.54.09,1.13.09,1.71q0,22.22,0,44.43c0,7.61-4.5,12.07-12.15,12.08H67.09c-6.2,0-10.34-3-11.72-8.53a13.19,13.19,0,0,1-.33-3.14Q55,113.67,55,91C55,90.65,55.08,90.27,55.12,89.7Z"/><path class="cls-1" d="M101.6,121.8a20.3,20.3,0,1,1,20.19-20.1A20.42,20.42,0,0,1,101.6,121.8Z"/><path class="cls-1" d="M145.77,76.58H126.45V57.27h19.32Z"/></g></g></svg>