<svg xmlns="http://www.w3.org/2000/svg" viewBox="0 0 206.25 206.25"><defs><style>.cls-1{fill:#72a182;}</style></defs><title>Asset 2</title><g id="Layer_2" data-name="Layer 2"><g id="GLOBAL"><path class="cls-1" d="M206.25,96.25V110a26.27,26.27,0,0,0-.6,3c-3.89,44.72-38.05,82.69-82.16,91.25-3.79.73-7.62,1.33-11.43,2H94.19a11.16,11.16,0,0,0-1.93-.56c-43.52-4.85-78.63-35.39-89.21-77.84-1.41-5.62-2-11.44-3-17.16V95.56A14.16,14.16,0,0,0,.58,93.3C4.8,47.87,39.36,10,84.09,2,88.8,1.15,93.57.66,98.31,0h9.63a25.38,25.38,0,0,0,3,.56,102.86,102.86,0,0,1,92.71,80.19C204.76,85.86,205.39,91.08,206.25,96.25Zm-48.6-36.57-.88-.64c-3.52,1.33-7.05,2.64-10.56,4-2.22.85-3.89.46-5.86-1.13-7.87-6.34-16.67-7.5-25.68-2.89s-13.22,12.33-12.94,22.45c0,1.22.12,2.43.2,3.91a64.77,64.77,0,0,1-26.88-7.12A69.12,69.12,0,0,1,53.26,60.71c-5.67,12.48-3,22.6,6.16,31.79L50,90c.79,11.75,7.07,19,17.52,23.45H58.43c3.84,10.16,11.2,15.07,21.76,16.55-10.14,7.69-21.09,10.54-33.13,10.17a12.35,12.35,0,0,0,2.81,2,67,67,0,0,0,49,5.91c29.39-7.33,50-34.26,50.2-65.2a6.19,6.19,0,0,1,2.39-5.22c3.13-2.71,5.88-5.85,8.79-8.81l-.45-.45-11,2.71Z"/></g></g></svg>