<?xml version="1.0" encoding="UTF-8"?>
<svg xmlns="http://www.w3.org/2000/svg" viewBox="0 0 203.86 103.55">
  <defs>
    <style>.cls-1,.cls-2,.cls-3{fill:#fff;}.cls-1,.cls-2{stroke:#fff;stroke-miterlimit:10;}.cls-1{stroke-width:1.58px;}.cls-2{stroke-width:1.37px;}</style>
  </defs>
  <title>KSH_stacked_white</title>
  <g id="GLOBAL">
    <path class="cls-1" d="M72,122.22" transform="translate(-17.42 -15.8)"></path>
    <path class="cls-2" d="M50,87.58" transform="translate(-17.42 -15.8)"></path>
    <path class="cls-2" d="M60.51,87.59" transform="translate(-17.42 -15.8)"></path>
    <path class="cls-2" d="M69.79,118.88" transform="translate(-17.42 -15.8)"></path>
    <path class="cls-2" d="M54.79,87.58" transform="translate(-17.42 -15.8)"></path>
    <path class="cls-3" d="M74.25,96.2l0,.06L66.93,87.6l-.28-.44L42.41,58.35h0l-11.76-14c-.31-.43-3.35-4.74-3.19-9.43.37-10.71,9.4-19.1,20.55-19.1,11.33,0,20.55,8.56,20.55,19.07,0,6.93-4.11,13.45-10.71,17a40,40,0,0,1-5.16,2.76l-1,.44L69.15,75.74,77,68.56V85L87.29,97.19,87.47,112ZM47.57,25.46c-5.66,0-10.27,4.31-10.27,9.61s7.17,11.6,7.47,11.87l.33.29.41-.1c.54-.14,13-3.36,12.33-12.12A10.24,10.24,0,0,0,47.57,25.46Z" transform="translate(-17.42 -15.8)"></path>
    <polyline class="cls-3" points="24.74 81.33 30.34 71.27 25.67 81.31"></polyline>
    <polygon class="cls-3" points="30.34 71.27 24.74 81.33 12.41 103.46 15.32 103.56 25.67 81.31 30.34 71.27"></polygon>
    <line class="cls-3" x1="24.38" y1="88.72" x2="24.16" y2="88.72"></line>
    <line class="cls-3" x1="11.82" y1="99.37" x2="11.57" y2="99.37"></line>
    <polygon class="cls-3" points="24.8 76.23 24.8 77.27 25.94 77.27 26.6 76.23 24.8 76.23"></polygon>
    <polygon class="cls-3" points="20.31 81.66 20.31 82.69 22.47 82.69 23.13 81.66 20.31 81.66"></polygon>
    <polygon class="cls-3" points="14.2 89.11 14.2 90.14 17.71 90.14 18.37 89.11 14.2 89.11"></polygon>
    <polygon class="cls-3" points="12.56 97.83 7 97.83 7 99.37 11.57 99.37 11.82 99.37 12.8 97.83 12.56 97.83"></polygon>
    <polygon class="cls-3" points="28.24 73.28 27.15 73.28 26.89 73.28 24.8 75.83 25.06 75.83 26.62 75.83 26.86 75.83 28.49 73.29 28.24 73.28"></polygon>
    <polygon class="cls-3" points="22.43 78.71 20.3 81.31 23.36 81.3 25 78.75 22.43 78.71"></polygon>
    <polygon class="cls-3" points="16.99 85.34 14.19 88.76 18.62 88.72 20.78 85.34 16.99 85.34"></polygon>
    <polygon class="cls-3" points="15.39 93.39 10.66 93.39 10.39 93.39 7.01 97.52 7.28 97.52 12.76 97.51 13.01 97.51 15.64 93.39 15.39 93.39"></polygon>
    <path class="cls-2" d="M55,87.58" transform="translate(-17.42 -15.8)"></path>
    <path class="cls-2" d="M44.51,87.59" transform="translate(-17.42 -15.8)"></path>
    <path class="cls-2" d="M50.23,87.58" transform="translate(-17.42 -15.8)"></path>
    <polyline class="cls-3" points="45.44 81.33 39.84 71.27 44.51 81.31"></polyline>
    <polygon class="cls-3" points="39.84 71.27 45.44 81.33 57.77 103.46 54.86 103.56 44.51 81.31 39.84 71.27"></polygon>
    <line class="cls-3" x1="45.79" y1="88.72" x2="46.01" y2="88.72"></line>
    <line class="cls-3" x1="58.36" y1="99.37" x2="58.6" y2="99.37"></line>
    <polygon class="cls-3" points="45.38 76.23 45.38 77.27 44.24 77.27 43.58 76.23 45.38 76.23"></polygon>
    <polygon class="cls-3" points="49.87 81.66 49.87 82.69 47.7 82.69 47.05 81.66 49.87 81.66"></polygon>
    <polygon class="cls-3" points="55.98 89.11 55.98 90.14 52.46 90.14 51.8 89.11 55.98 89.11"></polygon>
    <polygon class="cls-3" points="57.62 97.83 63.17 97.83 63.17 99.37 58.6 99.37 58.36 99.37 57.37 97.83 57.62 97.83"></polygon>
    <line class="cls-3" x1="62.9" y1="97.52" x2="63.17" y2="97.52"></line>
    <polygon class="cls-3" points="41.94 73.28 43.03 73.28 43.29 73.28 45.38 75.83 45.12 75.83 43.56 75.83 43.32 75.83 41.69 73.29 41.94 73.28"></polygon>
    <polygon class="cls-3" points="47.74 78.71 49.88 81.31 46.81 81.3 45.18 78.75 47.74 78.71"></polygon>
    <polygon class="cls-3" points="53.18 85.34 55.98 88.76 51.55 88.72 49.4 85.34 53.18 85.34"></polygon>
    <polygon class="cls-3" points="54.78 93.39 59.52 93.39 59.79 93.39 63.17 97.52 62.9 97.52 57.41 97.51 57.17 97.51 54.54 93.39 54.78 93.39"></polygon>
    <polygon class="cls-3" points="40.97 77.27 41.03 77.27 41.03 76.23 40.97 76.23 29.21 76.23 29.14 76.23 29.14 77.27 29.21 77.27 40.97 77.27"></polygon>
    <polygon class="cls-3" points="43.07 82.69 43.11 82.69 43.11 81.66 43.07 81.66 27.11 81.66 27.07 81.66 27.07 82.69 27.11 82.69 43.07 82.69"></polygon>
    <polygon class="cls-3" points="20.86 97.89 20.83 97.89 20.83 99.43 20.86 99.43 20.86 99.49 35.09 99.46 49.32 99.49 49.32 99.43 49.34 99.43 49.34 97.89 49.32 97.89 20.86 97.89"></polygon>
    <polygon class="cls-3" points="21.05 97.49 49.13 97.49 49.31 97.49 49.35 97.49 47.77 93.39 47.74 93.39 22.44 93.39 22.41 93.39 20.83 97.49 20.87 97.49 21.05 97.49"></polygon>
    <polygon class="cls-3" points="29.39 75.83 40.79 75.83 41 75.83 41.01 75.83 40.03 73.28 40.02 73.28 39.8 73.28 30.37 73.28 30.16 73.28 30.15 73.28 29.17 75.83 29.18 75.83 29.39 75.83"></polygon>
    <polygon class="cls-3" points="43.08 81.25 43.1 81.25 42.12 78.7 42.1 78.7 28.08 78.7 28.06 78.7 27.08 81.25 27.1 81.25 43.08 81.25"></polygon>
    <polygon class="cls-3" points="45.94 88.72 46.01 88.72 44.71 85.34 44.65 85.34 25.53 85.34 25.47 85.34 24.16 88.72 24.23 88.72 45.94 88.72"></polygon>
    <polygon class="cls-3" points="45.94 90.14 46.03 90.14 46.03 89.11 45.94 89.11 24.23 89.11 24.15 89.11 24.15 90.14 24.23 90.14 45.94 90.14"></polygon>
    <path class="cls-3" d="M29.25,101.76A29.39,29.39,0,0,1,17.42,78.41c0-10.92,6.35-21,16.59-26.4l6.41,7.65C32.63,63.15,27.81,70.3,27.81,78.41A20.26,20.26,0,0,0,35,93.78Z" transform="translate(-17.42 -15.8)"></path>
    <polygon class="cls-3" points="77.88 8.22 84.91 15.73 84.96 15.78 88.03 15.78 80.16 7.53 87.71 0.57 84.65 0.57 77.89 6.99 77.88 0.57 75.77 0.57 75.77 15.78 77.88 15.78 77.88 8.22"></polygon>
    <polygon class="cls-3" points="100.12 13.8 92.16 13.8 92.16 8.85 99.24 8.85 99.24 6.87 92.16 6.87 92.16 2.55 99.74 2.55 99.74 0.57 90.05 0.57 90.05 15.78 100.12 15.78 100.12 13.8"></polygon>
    <polygon class="cls-3" points="105.66 3.76 114.05 15.78 116.54 15.78 116.54 0.57 114.43 0.57 114.43 12.59 106.04 0.57 103.55 0.57 103.55 15.78 105.66 15.78 105.66 3.76"></polygon>
    <polygon class="cls-3" points="124.24 15.78 126.35 15.78 126.35 2.55 131.26 2.55 131.26 0.57 119.32 0.57 119.32 2.55 124.24 2.55 124.24 15.78"></polygon>
    <polygon class="cls-3" points="85.47 31.37 77.88 31.37 77.88 25.07 75.77 25.07 75.77 40.28 77.88 40.28 77.88 33.35 85.47 33.35 85.47 40.28 87.58 40.28 87.58 25.07 85.47 25.07 85.47 31.37"></polygon>
    <rect class="cls-3" x="91.98" y="25.07" width="2.11" height="15.22"></rect>
    <path class="cls-3" d="M124.56,54a4.3,4.3,0,0,0,.46-2,4.1,4.1,0,0,0-.39-1.89,3.66,3.66,0,0,0-1-1.27,5.71,5.71,0,0,0-1.48-.82c-.53-.21-1.1-.41-1.68-.59a13.88,13.88,0,0,1-1.47-.54,4.2,4.2,0,0,1-.92-.56,1.77,1.77,0,0,1-.47-.64,2.37,2.37,0,0,1-.14-.83,2,2,0,0,1,.92-1.76,3,3,0,0,1,1-.42,3.94,3.94,0,0,1,2.58.17,2.43,2.43,0,0,1,1.09,1l.11.18,1.74-1.51-.12-.14a4.7,4.7,0,0,0-1.93-1.4,7,7,0,0,0-4.3-.12,5.35,5.35,0,0,0-1.67.84A4,4,0,0,0,115.2,45a4.12,4.12,0,0,0,.3,1.65,3.44,3.44,0,0,0,.81,1.19,4.55,4.55,0,0,0,1.21.83,11.28,11.28,0,0,0,1.49.59l1.72.59a4.82,4.82,0,0,1,1.18.55,1.86,1.86,0,0,1,.66.68,2.21,2.21,0,0,1,.21,1,1.92,1.92,0,0,1-.27,1,2.45,2.45,0,0,1-.71.76,3.27,3.27,0,0,1-1,.46,3.88,3.88,0,0,1-2.85-.24,2.88,2.88,0,0,1-1.27-1.17l-.1-.17-1.8,1.47.09.13a3.94,3.94,0,0,0,1,1A5.74,5.74,0,0,0,117,56a7,7,0,0,0,1.28.37,8.52,8.52,0,0,0,1.33.11,7.78,7.78,0,0,0,2-.26,5.24,5.24,0,0,0,1.73-.83A4.37,4.37,0,0,0,124.56,54Z" transform="translate(-17.42 -15.8)"></path>
    <polygon class="cls-3" points="109.6 27.05 114.51 27.05 114.51 40.28 116.63 40.28 116.63 27.05 121.54 27.05 121.54 25.07 109.6 25.07 109.6 27.05"></polygon>
    <path class="cls-3" d="M152,55.86a7.74,7.74,0,0,0,2.51-1.66,7.46,7.46,0,0,0,1.66-2.54,8.89,8.89,0,0,0,0-6.37,7.42,7.42,0,0,0-1.66-2.53A7.61,7.61,0,0,0,152,41.09a8.75,8.75,0,0,0-6.37,0,7.61,7.61,0,0,0-2.51,1.67,7.42,7.42,0,0,0-1.66,2.53,8.89,8.89,0,0,0,0,6.37,7.46,7.46,0,0,0,1.66,2.54,7.74,7.74,0,0,0,2.51,1.66,8.75,8.75,0,0,0,6.37,0Zm-3.18-13.38a5.68,5.68,0,0,1,2.31.47,5.52,5.52,0,0,1,1.8,1.28,5.88,5.88,0,0,1,1.17,1.91,6.44,6.44,0,0,1,.42,2.34,6.52,6.52,0,0,1-.42,2.34,6.1,6.1,0,0,1-1.17,1.91,5.52,5.52,0,0,1-1.8,1.28,5.94,5.94,0,0,1-4.63,0,5.52,5.52,0,0,1-1.8-1.28,6.1,6.1,0,0,1-1.17-1.91,6.73,6.73,0,0,1,0-4.68,5.88,5.88,0,0,1,1.17-1.91,5.52,5.52,0,0,1,1.8-1.28A5.69,5.69,0,0,1,148.83,42.48Z" transform="translate(-17.42 -15.8)"></path>
    <path class="cls-3" d="M169.34,47.91a3.82,3.82,0,0,0,1-2.77,4.21,4.21,0,0,0-.55-2.29,3.65,3.65,0,0,0-1.44-1.29,5.67,5.67,0,0,0-2-.56,17.12,17.12,0,0,0-2.15-.13h-4V56.09h2.11V49.41h2l4,6.68H171l-4.25-6.9A4.83,4.83,0,0,0,169.34,47.91Zm-1.2-2.77a1.91,1.91,0,0,1-.39,1.3,2.36,2.36,0,0,1-1,.68,5.44,5.44,0,0,1-1.4.26c-.51,0-1,0-1.51,0h-1.4V42.86h2.3a9,9,0,0,1,1.27.08,3.15,3.15,0,0,1,1.1.33,2,2,0,0,1,.76.68A2.16,2.16,0,0,1,168.14,45.14Z" transform="translate(-17.42 -15.8)"></path>
    <rect class="cls-3" x="156.76" y="25.07" width="2.11" height="15.22"></rect>
    <path class="cls-3" d="M191.74,52.46a5.37,5.37,0,0,1-1.81,1.5,5.33,5.33,0,0,1-6.31-1.22,5.94,5.94,0,0,1-1.14-1.9,6.72,6.72,0,0,1-.4-2.36,6.48,6.48,0,0,1,.4-2.28,6,6,0,0,1,1.15-1.92A5.53,5.53,0,0,1,185.37,43a5,5,0,0,1,2.2-.48,4.75,4.75,0,0,1,2,.43,4.23,4.23,0,0,1,1.59,1.3l.1.14L193.07,43l-.11-.14a5.51,5.51,0,0,0-2.42-1.84,8.08,8.08,0,0,0-3-.56,7.52,7.52,0,0,0-7.17,4.86,8.74,8.74,0,0,0-.56,3.13,8.31,8.31,0,0,0,.59,3.19,7.75,7.75,0,0,0,1.63,2.53,7.63,7.63,0,0,0,2.46,1.66,7.75,7.75,0,0,0,3,.6,8,8,0,0,0,3.27-.64,6.31,6.31,0,0,0,2.5-2l.1-.13-1.59-1.34Z" transform="translate(-17.42 -15.8)"></path>
    <path class="cls-3" d="M201.42,40.87l-6.71,15.22h2.38l1.54-3.66h7.2l1.51,3.66h2.44l-6.47-15.22ZM205,50.44h-5.54l2.84-6.72Z" transform="translate(-17.42 -15.8)"></path>
    <polygon class="cls-3" points="197.06 38.3 197.06 25.07 194.94 25.07 194.94 40.28 203.86 40.28 203.86 38.3 197.06 38.3"></polygon>
    <path class="cls-3" d="M100.87,73.28a5.65,5.65,0,0,0-1.47-.82c-.54-.21-1.1-.41-1.68-.59a13.1,13.1,0,0,1-1.47-.54,4,4,0,0,1-.92-.56,1.66,1.66,0,0,1-.47-.64,2.16,2.16,0,0,1-.14-.83,2.09,2.09,0,0,1,.25-1,2,2,0,0,1,.66-.71,3.14,3.14,0,0,1,1-.42,3.91,3.91,0,0,1,2.57.17,2.4,2.4,0,0,1,1.1,1l.11.18,1.74-1.51-.12-.14a4.7,4.7,0,0,0-1.93-1.4,7,7,0,0,0-4.3-.12,5.35,5.35,0,0,0-1.67.84,4.17,4.17,0,0,0-1.18,1.39,4,4,0,0,0-.44,2,4.31,4.31,0,0,0,.29,1.65,3.61,3.61,0,0,0,.82,1.19,4.55,4.55,0,0,0,1.21.83,10.76,10.76,0,0,0,1.49.59L98,74.3a4.82,4.82,0,0,1,1.18.55,1.86,1.86,0,0,1,.66.68,2.21,2.21,0,0,1,.21,1,1.92,1.92,0,0,1-.27,1,2.45,2.45,0,0,1-.71.76,3.22,3.22,0,0,1-1,.46,3.86,3.86,0,0,1-2.84-.24A2.88,2.88,0,0,1,94,77.4l-.11-.17L92.08,78.7l.09.13a4.08,4.08,0,0,0,.94,1,5.82,5.82,0,0,0,1.17.65,6.74,6.74,0,0,0,1.28.37,8.52,8.52,0,0,0,1.33.11,7.78,7.78,0,0,0,2-.26,5.24,5.24,0,0,0,1.73-.83,4.37,4.37,0,0,0,1.22-1.41,4.3,4.3,0,0,0,.46-2,4.1,4.1,0,0,0-.39-1.89A3.68,3.68,0,0,0,100.87,73.28Z" transform="translate(-17.42 -15.8)"></path>
    <path class="cls-3" d="M118.7,67.26a7.65,7.65,0,0,0-2.52-1.67A8.23,8.23,0,0,0,113,65a8.31,8.31,0,0,0-3.19.6,7.71,7.71,0,0,0-2.51,1.67,7.57,7.57,0,0,0-1.66,2.53,8.89,8.89,0,0,0,0,6.37,7.61,7.61,0,0,0,1.66,2.54,7.85,7.85,0,0,0,2.51,1.66A8.31,8.31,0,0,0,113,81a8.23,8.23,0,0,0,3.18-.6,7.79,7.79,0,0,0,2.52-1.66,7.44,7.44,0,0,0,1.65-2.54,8.89,8.89,0,0,0,0-6.37A7.4,7.4,0,0,0,118.7,67.26ZM113,79a5.61,5.61,0,0,1-2.31-.47,5.42,5.42,0,0,1-1.8-1.28,6.13,6.13,0,0,1-1.18-1.91,6.73,6.73,0,0,1,0-4.68,5.91,5.91,0,0,1,1.18-1.91,5.32,5.32,0,0,1,1.8-1.28,5.91,5.91,0,0,1,4.62,0,5.42,5.42,0,0,1,1.8,1.28,5.91,5.91,0,0,1,1.18,1.91A6.65,6.65,0,0,1,118.7,73a6.73,6.73,0,0,1-.41,2.34,6.13,6.13,0,0,1-1.18,1.91,5.42,5.42,0,0,1-1.8,1.28A5.61,5.61,0,0,1,113,79Z" transform="translate(-17.42 -15.8)"></path>
    <path class="cls-3" d="M135.52,77a5.06,5.06,0,0,1-4.17,2,5.19,5.19,0,0,1-2.22-.47,5.35,5.35,0,0,1-1.73-1.27,5.92,5.92,0,0,1-1.13-1.9,6.72,6.72,0,0,1-.41-2.36,6.48,6.48,0,0,1,.41-2.28,6,6,0,0,1,1.14-1.92,5.65,5.65,0,0,1,1.74-1.32,5.06,5.06,0,0,1,2.2-.48,4.72,4.72,0,0,1,2,.43,4.16,4.16,0,0,1,1.59,1.3l.1.14,1.82-1.32-.11-.14a5.49,5.49,0,0,0-2.41-1.84,8.17,8.17,0,0,0-3-.56,7.56,7.56,0,0,0-5.56,2.32,7.51,7.51,0,0,0-1.6,2.54,8.9,8.9,0,0,0,0,6.32,7.75,7.75,0,0,0,1.63,2.53,7.63,7.63,0,0,0,2.46,1.66,7.79,7.79,0,0,0,3,.6,8,8,0,0,0,3.28-.64,6.28,6.28,0,0,0,2.49-2l.1-.13-1.59-1.34Z" transform="translate(-17.42 -15.8)"></path>
    <rect class="cls-3" x="122.89" y="49.57" width="2.11" height="15.22"></rect>
    <polygon class="cls-3" points="131.51 57.85 138.59 57.85 138.59 55.87 131.51 55.87 131.51 51.55 139.1 51.55 139.1 49.57 129.4 49.57 129.4 64.78 139.47 64.78 139.47 62.8 131.51 62.8 131.51 57.85"></polygon>
    <polygon class="cls-3" points="141.29 51.55 146.2 51.55 146.2 64.78 148.31 64.78 148.31 51.55 153.23 51.55 153.23 49.57 141.29 49.57 141.29 51.55"></polygon>
    <polygon class="cls-3" points="161.57 56.13 157.49 49.57 154.82 49.57 160.52 58.26 160.52 64.78 162.63 64.78 162.63 58.26 168.32 49.57 165.78 49.57 161.57 56.13"></polygon>
    <polygon class="cls-3" points="83.69 92.84 78.76 81.44 75.8 81.44 75.8 96.7 77.97 96.7 77.97 84.91 83.01 96.7 84.34 96.7 89.39 84.91 89.39 96.7 91.55 96.7 91.55 81.44 88.66 81.44 83.69 92.84"></polygon>
    <path class="cls-3" d="M122.71,106.38a7.26,7.26,0,0,1-.19,1.7,4.17,4.17,0,0,1-.6,1.43,3,3,0,0,1-1.1,1,4.35,4.35,0,0,1-3.51,0,3,3,0,0,1-1.1-1,4.06,4.06,0,0,1-.6-1.43,7.26,7.26,0,0,1-.19-1.7V97.24h-2.16v9.4a8.68,8.68,0,0,0,.31,2.36,5.65,5.65,0,0,0,1,2,4.85,4.85,0,0,0,1.81,1.38,7.32,7.32,0,0,0,5.37,0,4.85,4.85,0,0,0,1.81-1.38,5.65,5.65,0,0,0,1-2,8.68,8.68,0,0,0,.31-2.36v-9.4h-2.16Z" transform="translate(-17.42 -15.8)"></path>
    <path class="cls-3" d="M136.88,105.16a5.45,5.45,0,0,0-1.48-.83c-.54-.21-1.1-.41-1.68-.59a13.1,13.1,0,0,1-1.47-.54,3.73,3.73,0,0,1-.92-.56,1.82,1.82,0,0,1-.46-.63,2.21,2.21,0,0,1-.14-.81,2,2,0,0,1,.25-1,2,2,0,0,1,.66-.71,3.2,3.2,0,0,1,1-.41,3.85,3.85,0,0,1,2.55.17,2.41,2.41,0,0,1,1.09,1l.12.2,1.78-1.55-.13-.15a4.75,4.75,0,0,0-1.94-1.41,7.09,7.09,0,0,0-4.32-.12,5.52,5.52,0,0,0-1.68.84,4.35,4.35,0,0,0-1.19,1.4,4.68,4.68,0,0,0-.14,3.63,3.76,3.76,0,0,0,.82,1.2,4.78,4.78,0,0,0,1.22.83,10.76,10.76,0,0,0,1.49.59l1.72.59a5.44,5.44,0,0,1,1.18.54,1.85,1.85,0,0,1,.64.67,2.19,2.19,0,0,1,.21,1,2,2,0,0,1-.26,1,2.51,2.51,0,0,1-.7.75,3.55,3.55,0,0,1-1,.47,3.93,3.93,0,0,1-2.83-.24,2.89,2.89,0,0,1-1.26-1.16l-.12-.21L128,110.59l.1.15a3.94,3.94,0,0,0,1,1,5.18,5.18,0,0,0,1.17.66,6.84,6.84,0,0,0,1.29.37,8.52,8.52,0,0,0,1.33.11,7.44,7.44,0,0,0,2-.27,5.24,5.24,0,0,0,1.73-.83,4.5,4.5,0,0,0,1.3-5.35A3.59,3.59,0,0,0,136.88,105.16Z" transform="translate(-17.42 -15.8)"></path>
    <polygon class="cls-3" points="126.62 89.77 133.7 89.77 133.7 87.73 126.62 87.73 126.62 83.47 134.2 83.47 134.2 81.44 124.46 81.44 124.46 96.7 134.58 96.7 134.58 94.67 126.62 94.67 126.62 89.77"></polygon>
    <path class="cls-3" d="M164.77,106.38a7.84,7.84,0,0,1-.18,1.7,4.37,4.37,0,0,1-.6,1.43,3.08,3.08,0,0,1-1.11,1,4.35,4.35,0,0,1-3.51,0,3,3,0,0,1-1.1-1,4.25,4.25,0,0,1-.6-1.43,7.84,7.84,0,0,1-.19-1.7V97.24h-2.16v9.4a9.09,9.09,0,0,0,.31,2.36,5.65,5.65,0,0,0,1,2,4.85,4.85,0,0,0,1.81,1.38,7.35,7.35,0,0,0,5.38,0,4.9,4.9,0,0,0,1.8-1.38,5.49,5.49,0,0,0,1-2,8.68,8.68,0,0,0,.31-2.36v-9.4h-2.16Z" transform="translate(-17.42 -15.8)"></path>
    <polygon class="cls-3" points="166.65 81.44 161.68 92.84 156.75 81.44 153.79 81.44 153.79 96.7 155.96 96.7 155.96 84.91 161 96.7 162.34 96.7 167.38 84.91 167.38 96.7 169.55 96.7 169.55 81.44 166.65 81.44"></polygon>
  </g>
</svg>
