<?xml version="1.0" encoding="utf-8"?>
<!-- Generator: Adobe Illustrator 21.0.2, SVG Export Plug-In . SVG Version: 6.00 Build 0)  -->
<svg version="1.1" id="Layer_1" xmlns="http://www.w3.org/2000/svg" xmlns:xlink="http://www.w3.org/1999/xlink" x="0px" y="0px"
	 viewBox="0 0 97.693 97.693" style="enable-background:new 0 0 97.693 97.693;" xml:space="preserve">
<style type="text/css">
	.st0{fill:#1F3C72;}
</style>
<path id="instagram-circle-icon_2_" class="st0" d="M66.122,33.705v4.425c0,0.709-0.575,1.284-1.285,1.284h-4.328
	c-0.71,0-1.285-0.575-1.285-1.284v-4.425c0-0.709,0.575-1.284,1.285-1.284h4.328C65.547,32.421,66.122,32.996,66.122,33.705z
	 M49.538,55.505c3.258,0,5.898-2.641,5.898-5.898c0-3.257-2.641-5.898-5.898-5.898c-3.258,0-5.898,2.641-5.898,5.898
	C43.64,52.864,46.28,55.505,49.538,55.505z M85.014,49.422c0,19.883-16.117,36-36,36c-19.882,0-36-16.117-36-36s16.118-36,36-36
	C68.896,13.422,85.014,29.539,85.014,49.422z M69.782,43.607H57.955c1.205,1.693,1.917,3.763,1.917,5.999
	c0,5.722-4.639,10.36-10.36,10.36c-5.721,0-10.359-4.639-10.359-10.36c0-2.236,0.711-4.306,1.917-5.999H29.295v18.156
	c0,4.422,3.586,8.007,8.008,8.007h24.472c4.423,0,8.008-3.585,8.008-8.007V43.607z M49.512,57.588c4.401,0,7.981-3.58,7.981-7.981
	c0-2.389-1.057-4.534-2.726-5.999c-0.586-0.513-1.246-0.941-1.964-1.269c-1.004-0.456-2.118-0.713-3.292-0.713
	c-1.173,0-2.287,0.257-3.292,0.713c-0.717,0.327-1.378,0.756-1.963,1.269c-1.669,1.465-2.726,3.61-2.726,5.999
	C41.531,54.008,45.111,57.588,49.512,57.588z M69.782,37.08c0-4.422-3.586-8.007-8.008-8.007H39.893v10.095h-1.642V29.073h-0.948
	c-0.062,0-0.123,0.003-0.186,0.004v10.091h-1.642v-9.883c-0.397,0.093-0.784,0.215-1.156,0.364v9.519h-1.642v-8.622
	c-2.046,1.45-3.383,3.835-3.383,6.534v5.259h12.837c1.879-1.907,4.49-3.092,7.38-3.092c2.89,0,5.501,1.185,7.381,3.092h12.889
	L69.782,37.08L69.782,37.08z"/>
<g>
</g>
<g>
</g>
<g>
</g>
<g>
</g>
<g>
</g>
</svg>
