<svg id="Layer_1" data-name="Layer 1" xmlns="http://www.w3.org/2000/svg" xmlns:xlink="http://www.w3.org/1999/xlink" viewBox="0 0 97.69 97.69"><defs><clipPath id="clip-path"><circle cx="48.85" cy="48.85" r="36" style="fill:none"/></clipPath></defs><title>vimeo</title><g style="clip-path:url(#clip-path)"><rect x="7.85" y="7.85" width="82" height="82" style="fill:#1f3c72"/></g><path d="M64.24,47.94c-3.74,8-12.76,18.85-18.46,18.85s-6.43-12-9.5-20c-1.51-3.93-2.49-3-5.32-1l-1.73-2.23c4.13-3.63,8.26-7.85,10.8-8.08q4.29-.41,5.28,5.86c0.87,5.5,2.08,14,4.21,14,1.65,0,5.72-6.77,5.93-9.19,0.37-3.54-2.61-3.65-5.19-2.54C54.35,30.24,71.37,32.71,64.24,47.94Z" style="fill:#fff"/></svg>