<svg id="Layer_1" data-name="Layer 1" xmlns="http://www.w3.org/2000/svg" xmlns:xlink="http://www.w3.org/1999/xlink" viewBox="0 0 97.69 97.69"><defs><clipPath id="clip-path"><circle cx="48.85" cy="48.85" r="36" style="fill:none"/></clipPath></defs><title>youtube-white</title><g style="clip-path:url(#clip-path)"><rect x="7.85" y="7.85" width="82" height="82" style="fill:#fff"/></g><path d="M36.66,28.1h2.49l1.71,6.4,1.58-6.4H45l-2.88,9.52v6.5H39.6v-6.5Zm11.4,4.1a3,3,0,0,0-3.22,3.17v5.79c0,2.08,1.09,3.17,3.22,3.17a3,3,0,0,0,3.16-3.17V35.37a3.08,3.08,0,0,0-3-3.17H48.06ZM49,41.07a1,1,0,0,1-.87,1.12H48.08a1,1,0,0,1-1-1.12v-5.5a1,1,0,1,1,1.88,0v5.5h0Zm8.18-8.77v9a2.3,2.3,0,0,1-1.29.89c-0.47,0-.58-0.32-0.58-0.8V32.3h-2.2v9.87c0,1.17.36,2.11,1.53,2.11a3.47,3.47,0,0,0,2.54-1.47v1.3h2.2V32.3h-2.2ZM61,56.3c-0.77,0-.94.54-0.94,1.32v1.14H61.9V57.58c0-.76-0.18-1.32-0.9-1.32v0Zm-8.13.07a1.6,1.6,0,0,0-.43.34v7a1.83,1.83,0,0,0,.5.4A0.89,0.89,0,0,0,54,64a1.3,1.3,0,0,0,.18-0.78V57.38A1.42,1.42,0,0,0,54,56.52a0.87,0.87,0,0,0-1.13-.19Zm8.35-9C56.68,47,42,47,37.55,47.35c-4.87.33-5.44,3.27-5.48,11s0.61,10.68,5.48,11c4.5,0.31,19.13.31,23.63,0,4.87-.33,5.44-3.27,5.48-11s-0.66-10.67-5.48-11ZM39.87,65.83H37.51v-13H35.07V50.57H42.3v2.21H39.87v13h0v0.05Zm8.38,0H46.16V64.58a4.57,4.57,0,0,1-1.2,1c-1.13.65-2.68,0.63-2.68-1.65v-9.4h2.09V63.2c0,0.45.11,0.76,0.56,0.76a2.18,2.18,0,0,0,1.23-.84V54.58h2.09V65.83h0Zm8-2.33c0,1.39-.52,2.47-1.91,2.47a2.39,2.39,0,0,1-2-1v0.86h-2.1V50.57H52.4v4.91a2.51,2.51,0,0,1,1.86-1c1.53,0,2,1.3,2,2.82v6.24h0Zm7.73-3H60v2.12c0,0.84.07,1.57,0.91,1.57s0.94-.59.94-1.57V61.81H64v0.85c0,2.17-.93,3.48-3.14,3.48-2,0-3-1.46-3-3.48V57.6a3.09,3.09,0,0,1,2.86-3.3H61c2,0,3,1.28,3,3.31v2.86h0v0Z" style="fill:#fff"/></svg>