<svg xmlns="http://www.w3.org/2000/svg" viewBox="0 0 33.8 33.8"><defs><style>.cls-1{fill:#fff;}</style></defs><title>Asset 1</title><g id="Layer_2" data-name="Layer 2"><g id="GLOBAL"><path class="cls-1" d="M33.8,30.42v.68l-2.7,2.7h-.68L19.75,23l-.86.51A12.56,12.56,0,0,1,.42,15.83C.26,15.23.14,14.63,0,14V11.15a2.47,2.47,0,0,0,.15-.46A12.58,12.58,0,0,1,9.61.4C10.29.24,11,.13,11.66,0h1.69a6.47,6.47,0,0,0,.74.15,12.6,12.6,0,0,1,11,13.24,13.45,13.45,0,0,1-2.15,6.32,6.84,6.84,0,0,1,.8.62Q28.78,25.37,33.8,30.42ZM21.69,12.63a9.15,9.15,0,1,0-9.13,9.15A9.14,9.14,0,0,0,21.69,12.63Z"/></g></g></svg>