<?xml version="1.0" encoding="UTF-8"?>
<svg width="512px" height="512px" viewBox="0 0 512 512" version="1.1" xmlns="http://www.w3.org/2000/svg" xmlns:xlink="http://www.w3.org/1999/xlink">
    <!-- Generator: Sketch 50.2 (55047) - http://www.bohemiancoding.com/sketch -->
    <title>Artboard</title>
    <desc>Created with Sketch.</desc>
    <defs></defs>
    <g id="Artboard" stroke="none" stroke-width="1" fill="none" fill-rule="evenodd">
        <g id="Group-2" transform="translate(108.000000, 277.000000)"></g>
        <path d="M108.379615,272 L108,273 L108.867692,273 L389.132308,273 L390,273 L373.08,229 L372.429231,229 L125.570769,229 L124.703077,229 L108.379615,272 L108,272 L108.379615,272 Z M512,333 L500.356031,333 L497,333 L512,355.54051 L512,418.701365 L378.160413,177.810515 L306,48 L366.242026,177.593441 L499.511257,465 L505.339896,464.797499 C493.104415,492.593267 465.31855,512 433,512 L79,512 C39.368358,512 6.55281627,482.816806 0.870463916,444.767506 L124.757974,177.593441 L185,48 L112.839587,177.810515 L-2.84217094e-14,380.904567 L0,290 L19.6653226,290 L28,277 L1.42108547e-14,277 L0,272.809963 L32.0280612,272.566502 L60,229 L10.994898,229 L2.84217094e-14,242.440113 L0,79 C0,35.3695048 35.3695048,8.01479195e-15 79,0 L433,0 C476.630495,-8.01479195e-15 512,35.3695048 512,79 L512,265.665627 L482.005102,229 L433,229 L460.971939,272.566502 L512,272.954391 L512,277 L461,277 L469.514056,290 L512,290 L512,333 Z M114,111 L114,124 L128.694444,124 L137,111 L114,111 Z M55,180 L55,193 L82.6428571,193 L91,180 L55,180 Z M159.881818,71.2105263 L145.181818,71.2105263 L141.840909,71 L114,103 L117.563636,103 L138.277273,103 L141.395455,103 L163,71.2105263 L159.881818,71.2105263 Z M83.2222222,141 L55,175 L95.4444444,175 L117,141.441558 L83.2222222,141 Z M376,111 L353,111 L361.383178,124 L376,124 L376,111 Z M438,180 L402,180 L410.52071,193 L438,193 L438,180 Z M336.13242,71.2105263 L333,71.2105263 L354.479452,103 L357.835616,103 L378.643836,103 L382,103 L354.255708,71 L350.675799,71.2105263 L336.13242,71.2105263 Z M406.878571,141 L373,141.441558 L394.7,175 L435,175 L406.878571,141 Z M322.141243,124 L323,124 L323,111 L322.141243,111 L171.858757,111 L171,111 L171,124 L171.858757,124 L322.141243,124 Z M347.568134,193 L348,193 L348,180 L347.568134,180 L142.431866,180 L142,180 L142,193 L142.431866,193 L347.568134,193 Z M60.2152123,393 L60,393 L60,415.273684 L60.2152123,415.273684 L60.2152123,416 L242.5,415.515789 L424.784788,416 L424.784788,415.273684 L425,415.273684 L425,393 L424.784788,393 L60.2152123,393 Z M63.0111962,386 L422.203889,386 L424.569829,386 L425,386 L404.997054,333 L404.566883,333 L80.6482027,333 L80.2180318,333 L60,386 L60.6452563,386 L63.0111962,386 Z M173.806818,103 L320.193182,103 L322.784091,103 L323,103 L310.477273,71 L310.261364,71 L307.670455,71 L186.329545,71 L183.738636,71 L183.522727,71 L171,103 L173.806818,103 Z M335.665966,141 L154.983193,141 L142,173 L348,173 L335.665966,141 Z M390,290 L390,277 L388.917051,277 L109.082949,277 L108,277 L108,290 L109.082949,290 L388.917051,290 L390,290 Z" id="Combined-Shape" fill="#000000"></path>
    </g>
</svg>