<?xml version="1.0" encoding="utf-8"?>
<!-- Generator: Adobe Illustrator 21.0.2, SVG Export Plug-In . SVG Version: 6.00 Build 0)  -->
<svg version="1.1" id="Layer_1" xmlns="http://www.w3.org/2000/svg" xmlns:xlink="http://www.w3.org/1999/xlink" x="0px" y="0px"
	 viewBox="0 0 97.693 97.693" style="enable-background:new 0 0 97.693 97.693;" xml:space="preserve">
<style type="text/css">
	.st0{fill:#1F3C72;}
</style>
<path id="facebook-circle-icon_2_" class="st0" d="M49.54,13.268c-19.883,0-36,16.117-36,36s16.117,36,36,36
	c19.882,0,36-16.117,36-36S69.422,13.268,49.54,13.268z M60.195,34.447c0,0-3.602,0-5.031,0c-1.776,0-2.146,0.728-2.146,2.565
	c0,1.529,0,4.439,0,4.439h7.178l-0.691,7.794h-6.486v23.282h-9.297V49.344h-4.835v-7.893h4.835c0,0,0-1.135,0-6.215
	c0-5.833,3.119-8.879,10.037-8.879c1.133,0,6.438,0,6.438,0V34.447L60.195,34.447z"/>
<g>
</g>
<g>
</g>
<g>
</g>
<g>
</g>
<g>
</g>
</svg>
