<svg id="Layer_1" data-name="Layer 1" xmlns="http://www.w3.org/2000/svg" viewBox="0 0 97.69 97.69"><title>instagram-white</title><path id="instagram-circle-icon" d="M66.12,33.71v4.42a1.28,1.28,0,0,1-1.29,1.28H60.51a1.28,1.28,0,0,1-1.28-1.28V33.71a1.28,1.28,0,0,1,1.28-1.28h4.33A1.28,1.28,0,0,1,66.12,33.71ZM49.54,55.51a5.9,5.9,0,1,0-5.9-5.9A5.9,5.9,0,0,0,49.54,55.51ZM85,49.42a36,36,0,1,1-36-36A36,36,0,0,1,85,49.42ZM69.78,43.61H58a10.36,10.36,0,1,1-16.89,0H29.3V61.76a8,8,0,0,0,8,8H61.78a8,8,0,0,0,8-8V43.61h0Zm-20.27,14a8,8,0,0,0,5.25-14,8.07,8.07,0,0,0-2-1.27,8,8,0,0,0-6.58,0A8,8,0,0,0,49.51,57.59ZM69.78,37.08a8,8,0,0,0-8-8H39.89v10.1H38.25V29.07H37.12V39.17H35.48V29.28a8,8,0,0,0-1.16.36v9.52H32.68V30.55a8,8,0,0,0-3.38,6.53v5.26H42.13a10.35,10.35,0,0,1,14.76,0H69.78V37.08h0Z" style="fill:#fff"/></svg>