<svg id="Layer_1" data-name="Layer 1" xmlns="http://www.w3.org/2000/svg" xmlns:xlink="http://www.w3.org/1999/xlink" viewBox="0 0 97.69 97.69"><defs><clipPath id="clip-path"><circle cx="48.85" cy="48.85" r="36" style="fill:none"/></clipPath><clipPath id="clip-path-2"><polygon points="27.49 28.5 27.49 69.42 49.49 69.42 71.49 69.42 71.49 28.5 49.49 28.5 27.49 28.5" style="fill:none"/></clipPath><clipPath id="clip-path-3"><rect x="27.49" y="28.42" width="44" height="41" style="fill:none"/></clipPath><clipPath id="clip-path-4"><path d="M49.44,69H49.22c-2.55,0-4.19-1.15-5.78-2.25A8.46,8.46,0,0,0,40.1,65a10.9,10.9,0,0,0-1.76-.15,12.12,12.12,0,0,0-2.43.27,5.38,5.38,0,0,1-.91.13,0.57,0.57,0,0,1-.63-0.45c-0.1-.34-0.17-0.67-0.24-1-0.13-.8-0.3-1.27-0.65-1.32-4-.62-5.21-1.46-5.47-2.06a0.77,0.77,0,0,1,0-.26,0.45,0.45,0,0,1,.38-0.47c6.22-1,9-7.31,9.13-7.58a2.35,2.35,0,0,0,.23-2c-0.43-1-1.82-1.43-2.74-1.72l-0.61-.2c-1.84-.72-2-1.46-1.92-1.84a1.74,1.74,0,0,1,1.69-1.09,1.2,1.2,0,0,1,.5.1,5.41,5.41,0,0,0,2.22.58,1.84,1.84,0,0,0,1.32-.42c0-.42,0-0.85-0.08-1.3-0.19-2.91-.42-6.53.52-8.59A11.28,11.28,0,0,1,49,29h0.77a11.33,11.33,0,0,1,10.58,6.68c0.93,2.07.7,5.69,0.52,8.6v0.13c0,0.41,0,.8-0.07,1.18A1.78,1.78,0,0,0,62,46a5.59,5.59,0,0,0,2.09-.57,1.59,1.59,0,0,1,.65-0.13,2,2,0,0,1,.75.14,1.37,1.37,0,0,1,1.06,1.11c0,0.43-.32,1.07-1.94,1.7L64,48.4c-0.92.29-2.32,0.73-2.74,1.72a2.32,2.32,0,0,0,.22,2c0.13,0.29,2.91,6.58,9.14,7.6a0.45,0.45,0,0,1,.38.47,0.75,0.75,0,0,1-.06.26c-0.26.59-1.41,1.44-5.46,2.06-0.33,0-.46.48-0.66,1.37-0.07.33-.14,0.65-0.24,1a0.54,0.54,0,0,1-.58.43,5.09,5.09,0,0,1-1-.11A12.22,12.22,0,0,0,60.57,65a10.91,10.91,0,0,0-1.76.15,8.45,8.45,0,0,0-3.34,1.68A9.31,9.31,0,0,1,49.77,69H49.44Z" style="fill:none"/></clipPath></defs><title>snapchat-white</title><g style="clip-path:url(#clip-path)"><rect x="7.85" y="7.85" width="82" height="82" style="fill:#fff"/></g><g style="clip-path:url(#clip-path-2)"><g style="clip-path:url(#clip-path-3)"><g style="clip-path:url(#clip-path-4)"><g style="clip-path:url(#clip-path-3)"><rect x="22.95" y="23.95" width="53.09" height="50.02" style="fill:#fffffe"/></g></g></g></g></svg>