<svg id="Layer_1" data-name="Layer 1" xmlns="http://www.w3.org/2000/svg" viewBox="0 0 97.69 97.69"><title>twitter-white</title><path id="twitter-4-icon" d="M49.35,13.42a36,36,0,1,0,36,36A36,36,0,0,0,49.35,13.42Zm18.11,29.8C68,55,59.23,68.06,43.73,68.06a23.63,23.63,0,0,1-12.8-3.75,16.79,16.79,0,0,0,12.36-3.46,8.36,8.36,0,0,1-7.8-5.8,8.36,8.36,0,0,0,3.77-.14,8.36,8.36,0,0,1-6.7-8.29,8.32,8.32,0,0,0,3.78,1,8.36,8.36,0,0,1-2.58-11.15A23.7,23.7,0,0,0,51,45.24,8.36,8.36,0,0,1,65.2,37.62a16.72,16.72,0,0,0,5.3-2,8.37,8.37,0,0,1-3.67,4.62,16.65,16.65,0,0,0,4.8-1.31A17,17,0,0,1,67.46,43.22Z" style="fill:#fcfcfc"/></svg>