<?xml version="1.0" encoding="UTF-8"?>
<svg xmlns="http://www.w3.org/2000/svg" viewBox="0 0 439.1 61.62">
  <defs>
    <style>.cls-1,.cls-2,.cls-3{fill:#77a88c;}.cls-1,.cls-2{stroke:#fff;stroke-miterlimit:10;}.cls-1{stroke-width:0.94px;}.cls-2{stroke-width:0.82px;}.cls-4{fill:#25303b;}.cls-5{fill:#78a88b;}</style>
  </defs>
  <title>KSH_horizontal_process</title>
  <g id="GLOBAL">
    <path class="cls-1" d="M348.1,80.79" transform="translate(-14.88 -17.47)"></path>
    <path class="cls-2" d="M335,60.18" transform="translate(-14.88 -17.47)"></path>
    <path class="cls-2" d="M341.27,60.18" transform="translate(-14.88 -17.47)"></path>
    <path class="cls-2" d="M346.79,78.8" transform="translate(-14.88 -17.47)"></path>
    <path class="cls-2" d="M337.87,60.18" transform="translate(-14.88 -17.47)"></path>
    <path class="cls-3" d="M349.44,65.31l0,0-4.32-5.15-.17-.26L330.5,42.78h0l-7-8.34a10.09,10.09,0,0,1-1.9-5.61,12,12,0,0,1,12.23-11.36c6.74,0,12.23,5.09,12.23,11.34a11.71,11.71,0,0,1-6.38,10.13,21.7,21.7,0,0,1-3.06,1.64l-.6.27,10.4,12.28,4.67-4.27v9.8l6.12,7.23.11,8.79Zm-15.87-42.1a5.93,5.93,0,0,0-6.11,5.72c0,3.08,4.26,6.9,4.44,7.07l.2.17.25-.07c.31-.08,7.73-2,7.33-7.21A6.1,6.1,0,0,0,333.57,23.21Z" transform="translate(-14.88 -17.47)"></path>
    <polyline class="cls-3" points="315.47 48.39 318.8 42.41 316.02 48.38"></polyline>
    <polygon class="cls-3" points="318.8 42.41 315.47 48.39 308.14 61.56 309.87 61.62 316.02 48.38 318.8 42.41"></polygon>
    <line class="cls-3" x1="315.26" y1="52.79" x2="315.13" y2="52.79"></line>
    <line class="cls-3" x1="307.78" y1="59.13" x2="307.64" y2="59.13"></line>
    <polygon class="cls-3" points="315.5 45.36 315.5 45.98 316.19 45.98 316.58 45.36 315.5 45.36"></polygon>
    <polygon class="cls-3" points="312.83 48.59 312.83 49.21 314.12 49.21 314.51 48.59 312.83 48.59"></polygon>
    <polygon class="cls-3" points="309.2 53.02 309.2 53.64 311.29 53.64 311.68 53.02 309.2 53.02"></polygon>
    <polygon class="cls-3" points="308.22 58.21 304.92 58.21 304.92 59.13 307.64 59.13 307.78 59.13 308.37 58.21 308.22 58.21"></polygon>
    <polygon class="cls-3" points="317.56 43.61 316.9 43.61 316.75 43.6 315.5 45.12 315.66 45.12 316.59 45.12 316.73 45.12 317.7 43.61 317.56 43.61"></polygon>
    <polygon class="cls-3" points="314.1 46.84 312.83 48.38 314.65 48.38 315.62 46.86 314.1 46.84"></polygon>
    <polygon class="cls-3" points="310.86 50.78 309.2 52.81 311.83 52.79 313.12 50.78 310.86 50.78"></polygon>
    <polygon class="cls-3" points="309.91 55.57 307.09 55.57 306.93 55.57 304.92 58.03 305.08 58.03 308.34 58.02 308.49 58.02 310.05 55.57 309.91 55.57"></polygon>
    <path class="cls-2" d="M338,60.18" transform="translate(-14.88 -17.47)"></path>
    <path class="cls-2" d="M331.75,60.18" transform="translate(-14.88 -17.47)"></path>
    <path class="cls-2" d="M335.15,60.18" transform="translate(-14.88 -17.47)"></path>
    <polyline class="cls-3" points="327.79 48.39 324.46 42.41 327.24 48.38"></polyline>
    <polygon class="cls-3" points="324.46 42.41 327.79 48.39 335.12 61.56 333.39 61.62 327.24 48.38 324.46 42.41"></polygon>
    <line class="cls-3" x1="328" y1="52.79" x2="328.13" y2="52.79"></line>
    <line class="cls-3" x1="335.48" y1="59.13" x2="335.62" y2="59.13"></line>
    <polygon class="cls-3" points="327.75 45.36 327.75 45.98 327.07 45.98 326.68 45.36 327.75 45.36"></polygon>
    <polygon class="cls-3" points="330.43 48.59 330.43 49.21 329.14 49.21 328.74 48.59 330.43 48.59"></polygon>
    <polygon class="cls-3" points="334.06 53.02 334.06 53.64 331.97 53.64 331.57 53.02 334.06 53.02"></polygon>
    <polygon class="cls-3" points="335.03 58.21 338.34 58.21 338.34 59.13 335.62 59.13 335.48 59.13 334.89 58.21 335.03 58.21"></polygon>
    <line class="cls-3" x1="338.18" y1="58.03" x2="338.34" y2="58.03"></line>
    <polygon class="cls-3" points="325.7 43.61 326.35 43.61 326.51 43.6 327.75 45.12 327.6 45.12 326.67 45.12 326.52 45.12 325.56 43.61 325.7 43.61"></polygon>
    <polygon class="cls-3" points="329.16 46.84 330.43 48.38 328.61 48.38 327.63 46.86 329.16 46.84"></polygon>
    <polygon class="cls-3" points="332.4 50.78 334.06 52.81 331.43 52.79 330.14 50.78 332.4 50.78"></polygon>
    <polygon class="cls-3" points="333.35 55.57 336.17 55.57 336.32 55.57 338.34 58.03 338.18 58.03 334.91 58.02 334.77 58.02 333.2 55.57 333.35 55.57"></polygon>
    <polygon class="cls-3" points="325.13 45.98 325.17 45.98 325.17 45.36 325.13 45.36 318.13 45.36 318.09 45.36 318.09 45.98 318.13 45.98 325.13 45.98"></polygon>
    <polygon class="cls-3" points="326.38 49.21 326.4 49.21 326.4 48.59 326.38 48.59 316.88 48.59 316.86 48.59 316.86 49.21 316.88 49.21 326.38 49.21"></polygon>
    <polygon class="cls-3" points="313.16 58.25 313.15 58.25 313.15 59.17 313.16 59.17 313.16 59.2 321.63 59.18 330.1 59.2 330.1 59.17 330.11 59.17 330.11 58.25 330.1 58.25 313.16 58.25"></polygon>
    <polygon class="cls-3" points="313.28 58.01 329.98 58.01 330.09 58.01 330.11 58.01 329.18 55.57 329.16 55.57 314.1 55.57 314.08 55.57 313.14 58.01 313.17 58.01 313.28 58.01"></polygon>
    <polygon class="cls-3" points="318.24 45.12 325.02 45.12 325.14 45.12 325.15 45.12 324.57 43.6 324.56 43.6 324.44 43.6 318.82 43.6 318.7 43.6 318.69 43.6 318.11 45.12 318.11 45.12 318.24 45.12"></polygon>
    <polygon class="cls-3" points="326.38 48.35 326.39 48.35 325.81 46.83 325.8 46.83 317.46 46.83 317.45 46.83 316.86 48.35 316.88 48.35 326.38 48.35"></polygon>
    <polygon class="cls-3" points="328.09 52.79 328.13 52.79 327.35 50.78 327.32 50.78 315.94 50.78 315.9 50.78 315.13 52.79 315.17 52.79 328.09 52.79"></polygon>
    <polygon class="cls-3" points="328.09 53.64 328.14 53.64 328.14 53.02 328.09 53.02 315.17 53.02 315.12 53.02 315.12 53.64 315.17 53.64 328.09 53.64"></polygon>
    <path class="cls-3" d="M322.67,68.62a17.5,17.5,0,0,1-7-13.9A17.9,17.9,0,0,1,325.5,39l3.82,4.55a12.21,12.21,0,0,0-7.51,11.16,12.06,12.06,0,0,0,4.3,9.14Z" transform="translate(-14.88 -17.47)"></path>
    <polygon class="cls-4" points="11.94 26.23 8.88 26.23 2.12 32.65 2.11 26.23 0 26.23 0 41.45 2.11 41.45 2.11 33.88 9.14 41.39 9.19 41.45 12.26 41.45 4.39 33.19 11.94 26.23"></polygon>
    <polygon class="cls-4" points="16.39 34.52 23.47 34.52 23.47 32.53 16.39 32.53 16.39 28.21 23.97 28.21 23.97 26.23 14.28 26.23 14.28 41.45 24.35 41.45 24.35 39.46 16.39 39.46 16.39 34.52"></polygon>
    <polygon class="cls-4" points="38.66 38.25 30.27 26.23 27.78 26.23 27.78 41.45 29.9 41.45 29.9 29.42 38.28 41.45 40.77 41.45 40.77 26.23 38.66 26.23 38.66 38.25"></polygon>
    <polygon class="cls-4" points="43.55 28.21 48.47 28.21 48.47 41.45 50.58 41.45 50.58 28.21 55.49 28.21 55.49 26.23 43.55 26.23 43.55 28.21"></polygon>
    <polygon class="cls-4" points="74.86 32.53 67.28 32.53 67.28 26.23 65.16 26.23 65.16 41.45 67.28 41.45 67.28 34.52 74.86 34.52 74.86 41.45 76.98 41.45 76.98 26.23 74.86 26.23 74.86 32.53"></polygon>
    <rect class="cls-4" x="81.37" y="26.23" width="2.11" height="15.22"></rect>
    <path class="cls-4" d="M110.45,51.6a6.14,6.14,0,0,0-1.47-.82c-.54-.21-1.11-.41-1.69-.59a13.88,13.88,0,0,1-1.47-.54,3.73,3.73,0,0,1-.92-.56,1.8,1.8,0,0,1-.47-.64,2.27,2.27,0,0,1-.14-.82,2,2,0,0,1,.25-1.05,2,2,0,0,1,.67-.72,3.63,3.63,0,0,1,1-.42,3.94,3.94,0,0,1,2.58.17,2.43,2.43,0,0,1,1.09,1l.11.18,1.74-1.51-.11-.13a4.86,4.86,0,0,0-1.93-1.41,7.06,7.06,0,0,0-4.31-.12,5.35,5.35,0,0,0-1.67.84,4.39,4.39,0,0,0-1.32,5,3.54,3.54,0,0,0,.81,1.19,4.8,4.8,0,0,0,1.21.83,11.28,11.28,0,0,0,1.49.58l1.72.59a5,5,0,0,1,1.18.55,1.86,1.86,0,0,1,.66.68,2.21,2.21,0,0,1,.21,1,1.89,1.89,0,0,1-.27,1,2.45,2.45,0,0,1-.71.76,3.29,3.29,0,0,1-1,.47,3.93,3.93,0,0,1-2.85-.24,2.93,2.93,0,0,1-1.27-1.17l-.1-.18L101.65,57l.09.13a3.78,3.78,0,0,0,1,1,4.92,4.92,0,0,0,1.16.65,6.26,6.26,0,0,0,1.28.37,7.59,7.59,0,0,0,1.34.12,7.48,7.48,0,0,0,2-.27,5.28,5.28,0,0,0,1.72-.83,4.06,4.06,0,0,0,1.68-3.42,4.15,4.15,0,0,0-.39-1.9A3.75,3.75,0,0,0,110.45,51.6Z" transform="translate(-14.88 -17.47)"></path>
    <polygon class="cls-4" points="98.99 28.21 103.91 28.21 103.91 41.45 106.02 41.45 106.02 28.21 110.93 28.21 110.93 26.23 98.99 26.23 98.99 28.21"></polygon>
    <path class="cls-4" d="M141.38,45.58a7.89,7.89,0,0,0-2.52-1.66,8.62,8.62,0,0,0-6.37,0A7.58,7.58,0,0,0,130,45.58a7.46,7.46,0,0,0-1.66,2.54,8.49,8.49,0,0,0-.59,3.18,8.58,8.58,0,0,0,.59,3.19A7.42,7.42,0,0,0,130,57a7.61,7.61,0,0,0,2.51,1.67,8.75,8.75,0,0,0,6.37,0A7.76,7.76,0,0,0,141.38,57,7.54,7.54,0,0,0,143,54.49a8.58,8.58,0,0,0,.59-3.19,8.49,8.49,0,0,0-.59-3.18A7.59,7.59,0,0,0,141.38,45.58Zm-5.7,11.72a5.69,5.69,0,0,1-2.32-.47,5.52,5.52,0,0,1-1.8-1.28,5.88,5.88,0,0,1-1.17-1.91,6.73,6.73,0,0,1,0-4.68,6,6,0,0,1,1.17-1.91,5.52,5.52,0,0,1,1.8-1.28,5.94,5.94,0,0,1,4.63,0,5.52,5.52,0,0,1,1.8,1.28A5.82,5.82,0,0,1,141,49a6.73,6.73,0,0,1,0,4.68,5.72,5.72,0,0,1-1.17,1.91,5.52,5.52,0,0,1-1.8,1.28A5.64,5.64,0,0,1,135.68,57.3Z" transform="translate(-14.88 -17.47)"></path>
    <path class="cls-4" d="M156.19,50.73a3.79,3.79,0,0,0,1-2.77,4.26,4.26,0,0,0-.55-2.29,3.72,3.72,0,0,0-1.44-1.29,6.15,6.15,0,0,0-2-.56,19.24,19.24,0,0,0-2.15-.13h-4V58.91h2.11V52.23h2l4,6.68h2.57L153.62,52A4.73,4.73,0,0,0,156.19,50.73ZM155,48a1.91,1.91,0,0,1-.39,1.3,2.27,2.27,0,0,1-1,.68,4.71,4.71,0,0,1-1.4.26c-.51,0-1,0-1.51,0h-1.4V45.68h2.3a10.69,10.69,0,0,1,1.27.08,3.63,3.63,0,0,1,1.1.33,1.94,1.94,0,0,1,.76.69A2.15,2.15,0,0,1,155,48Z" transform="translate(-14.88 -17.47)"></path>
    <rect class="cls-4" x="146.16" y="26.23" width="2.11" height="15.22"></rect>
    <path class="cls-4" d="M178.59,55.29a5.24,5.24,0,0,1-1.81,1.49,5.55,5.55,0,0,1-4.58,0,5.21,5.21,0,0,1-1.73-1.27,5.87,5.87,0,0,1-1.13-1.89,6.56,6.56,0,0,1-.41-2.37,6.3,6.3,0,0,1,.41-2.28,6.07,6.07,0,0,1,1.14-1.92,5.51,5.51,0,0,1,1.74-1.31,5.07,5.07,0,0,1,2.2-.49,4.77,4.77,0,0,1,2,.44A4.14,4.14,0,0,1,178,47l.1.14,1.82-1.32-.11-.15a5.67,5.67,0,0,0-2.42-1.84,8.08,8.08,0,0,0-3-.56,7.58,7.58,0,0,0-3.11.63,7.43,7.43,0,0,0-2.45,1.7,7.55,7.55,0,0,0-1.61,2.53,8.74,8.74,0,0,0-.56,3.13,8.36,8.36,0,0,0,.59,3.2A7.82,7.82,0,0,0,168.91,57a7.5,7.5,0,0,0,2.46,1.67,7.75,7.75,0,0,0,3,.6,8,8,0,0,0,3.28-.65,6.35,6.35,0,0,0,2.49-2l.1-.13-1.59-1.33Z" transform="translate(-14.88 -17.47)"></path>
    <path class="cls-4" d="M188.27,43.69l-6.7,15.22H184l1.53-3.65h7.2l1.51,3.65h2.44l-6.47-15.22Zm3.6,9.58h-5.55l2.84-6.73Z" transform="translate(-14.88 -17.47)"></path>
    <polygon class="cls-4" points="186.45 26.23 184.34 26.23 184.34 41.45 193.25 41.45 193.25 39.46 186.45 39.46 186.45 26.23"></polygon>
    <path class="cls-4" d="M225.34,51.6a6.14,6.14,0,0,0-1.47-.82c-.54-.21-1.11-.41-1.69-.59a13.88,13.88,0,0,1-1.47-.54,3.73,3.73,0,0,1-.92-.56,1.69,1.69,0,0,1-.47-.64,2.27,2.27,0,0,1-.14-.82,2,2,0,0,1,.25-1.05,2,2,0,0,1,.67-.72,3.63,3.63,0,0,1,1-.42,3.94,3.94,0,0,1,2.58.17,2.43,2.43,0,0,1,1.09,1l.11.18,1.74-1.51-.11-.13a4.86,4.86,0,0,0-1.93-1.41,7.06,7.06,0,0,0-4.31-.12,5.35,5.35,0,0,0-1.67.84,4.39,4.39,0,0,0-1.32,5,3.54,3.54,0,0,0,.81,1.19,4.8,4.8,0,0,0,1.21.83,11.28,11.28,0,0,0,1.49.58l1.72.59a5.22,5.22,0,0,1,1.18.55,1.86,1.86,0,0,1,.66.68,2.21,2.21,0,0,1,.21,1,1.89,1.89,0,0,1-.27,1,2.45,2.45,0,0,1-.71.76,3.29,3.29,0,0,1-1,.47,3.93,3.93,0,0,1-2.85-.24,2.93,2.93,0,0,1-1.27-1.17l-.1-.18L216.54,57l.09.13a3.78,3.78,0,0,0,1,1,4.92,4.92,0,0,0,1.16.65,6.26,6.26,0,0,0,1.28.37,7.59,7.59,0,0,0,1.34.12,7.48,7.48,0,0,0,2-.27,5.28,5.28,0,0,0,1.72-.83,4.06,4.06,0,0,0,1.68-3.42,4.15,4.15,0,0,0-.39-1.9A3.75,3.75,0,0,0,225.34,51.6Z" transform="translate(-14.88 -17.47)"></path>
    <path class="cls-4" d="M243.16,45.58a7.74,7.74,0,0,0-2.51-1.66,8.62,8.62,0,0,0-6.37,0,7.39,7.39,0,0,0-4.17,4.2,8.49,8.49,0,0,0-.59,3.18,8.58,8.58,0,0,0,.59,3.19A7.54,7.54,0,0,0,231.76,57a7.76,7.76,0,0,0,2.52,1.67,8.75,8.75,0,0,0,6.37,0A7.61,7.61,0,0,0,243.16,57a7.42,7.42,0,0,0,1.66-2.53,8.58,8.58,0,0,0,.59-3.19,8.49,8.49,0,0,0-.59-3.18A7.46,7.46,0,0,0,243.16,45.58Zm-5.7,11.72a5.64,5.64,0,0,1-2.31-.47,5.42,5.42,0,0,1-1.8-1.28,5.72,5.72,0,0,1-1.17-1.91,6.73,6.73,0,0,1,0-4.68,5.82,5.82,0,0,1,1.17-1.91,5.42,5.42,0,0,1,1.8-1.28,5.91,5.91,0,0,1,4.62,0,5.46,5.46,0,0,1,1.81,1.28A6,6,0,0,1,242.75,49a6.73,6.73,0,0,1,0,4.68,5.88,5.88,0,0,1-1.17,1.91,5.46,5.46,0,0,1-1.81,1.28A5.61,5.61,0,0,1,237.46,57.3Z" transform="translate(-14.88 -17.47)"></path>
    <path class="cls-4" d="M260,55.29a5.24,5.24,0,0,1-1.81,1.49,5.11,5.11,0,0,1-2.35.52,5.27,5.27,0,0,1-2.23-.47,5.21,5.21,0,0,1-1.73-1.27,5.87,5.87,0,0,1-1.13-1.89,6.78,6.78,0,0,1-.41-2.37,6.52,6.52,0,0,1,.41-2.28,6.27,6.27,0,0,1,1.14-1.92,5.74,5.74,0,0,1,1.74-1.31,5.08,5.08,0,0,1,2.21-.49,4.72,4.72,0,0,1,2,.44,4.07,4.07,0,0,1,1.59,1.3l.11.14,1.81-1.32-.1-.15a5.67,5.67,0,0,0-2.42-1.84,8.16,8.16,0,0,0-3-.56,7.62,7.62,0,0,0-5.57,2.33,7.68,7.68,0,0,0-1.6,2.53,8.93,8.93,0,0,0,0,6.33A7.68,7.68,0,0,0,250.31,57a7.5,7.5,0,0,0,2.46,1.67,7.72,7.72,0,0,0,3,.6,8,8,0,0,0,3.27-.65,6.21,6.21,0,0,0,2.49-2l.1-.13-1.58-1.33Z" transform="translate(-14.88 -17.47)"></path>
    <rect class="cls-4" x="249.9" y="26.23" width="2.11" height="15.22"></rect>
    <polygon class="cls-4" points="258.52 34.52 265.6 34.52 265.6 32.53 258.52 32.53 258.52 28.21 266.1 28.21 266.1 26.23 256.41 26.23 256.41 41.45 266.48 41.45 266.48 39.46 258.52 39.46 258.52 34.52"></polygon>
    <polygon class="cls-4" points="268.29 28.21 273.21 28.21 273.21 41.45 275.32 41.45 275.32 28.21 280.23 28.21 280.23 26.23 268.29 26.23 268.29 28.21"></polygon>
    <polygon class="cls-4" points="288.58 32.8 284.5 26.23 281.83 26.23 287.52 34.92 287.52 41.45 289.63 41.45 289.63 34.92 295.33 26.23 292.79 26.23 288.58 32.8"></polygon>
    <polygon class="cls-5" points="353.25 37.43 348.32 26.03 345.36 26.03 345.36 41.3 347.52 41.3 347.52 29.5 352.57 41.3 353.9 41.3 358.95 29.5 358.95 41.3 361.11 41.3 361.11 26.03 358.22 26.03 353.25 37.43"></polygon>
    <path class="cls-5" d="M389.72,52.64a8,8,0,0,1-.18,1.7,4.12,4.12,0,0,1-.6,1.42,3.08,3.08,0,0,1-1.11,1,4.32,4.32,0,0,1-3.5,0,3.08,3.08,0,0,1-1.11-1,4.12,4.12,0,0,1-.6-1.42,8,8,0,0,1-.18-1.7V43.49h-2.17v9.4a9,9,0,0,0,.31,2.36,5.47,5.47,0,0,0,1,2,4.92,4.92,0,0,0,1.8,1.38,7.35,7.35,0,0,0,5.38,0,4.92,4.92,0,0,0,1.8-1.38,5.55,5.55,0,0,0,1-2,9,9,0,0,0,.31-2.36v-9.4h-2.17Z" transform="translate(-14.88 -17.47)"></path>
    <path class="cls-5" d="M403.9,51.41a6.23,6.23,0,0,0-1.48-.83c-.54-.21-1.11-.41-1.69-.59a12.86,12.86,0,0,1-1.46-.54,3.66,3.66,0,0,1-.92-.55,1.7,1.7,0,0,1-.46-.63,2.39,2.39,0,0,1,.1-1.85,2.05,2.05,0,0,1,.66-.71,3.33,3.33,0,0,1,1-.42,3.88,3.88,0,0,1,2.56.17,2.46,2.46,0,0,1,1.09,1l.12.2,1.78-1.54-.13-.15a4.85,4.85,0,0,0-1.94-1.42,6.93,6.93,0,0,0-2.37-.4,6.62,6.62,0,0,0-2,.29,5.2,5.2,0,0,0-1.68.84,4,4,0,0,0-1.63,3.36,4.17,4.17,0,0,0,.3,1.66,3.37,3.37,0,0,0,.82,1.2,4.83,4.83,0,0,0,1.21.84,13,13,0,0,0,1.5.58l1.72.59a5.12,5.12,0,0,1,1.17.55,1.88,1.88,0,0,1,.65.67,2.14,2.14,0,0,1,.21,1,1.88,1.88,0,0,1-.27,1,2.35,2.35,0,0,1-.7.74,3.29,3.29,0,0,1-1,.47,3.88,3.88,0,0,1-2.83-.24A2.94,2.94,0,0,1,397,55.54l-.11-.2-1.84,1.5.1.15a4.36,4.36,0,0,0,1,1,6.11,6.11,0,0,0,1.17.65,6.35,6.35,0,0,0,1.29.37,7.59,7.59,0,0,0,1.34.12,7.42,7.42,0,0,0,2-.27,5.2,5.2,0,0,0,1.74-.83,4.14,4.14,0,0,0,1.69-3.45,4.19,4.19,0,0,0-.39-1.91A3.9,3.9,0,0,0,403.9,51.41Z" transform="translate(-14.88 -17.47)"></path>
    <polygon class="cls-5" points="396.18 34.36 403.26 34.36 403.26 32.33 396.18 32.33 396.18 28.07 403.76 28.07 403.76 26.03 394.02 26.03 394.02 41.3 404.14 41.3 404.14 39.26 396.18 39.26 396.18 34.36"></polygon>
    <path class="cls-5" d="M431.79,52.64a8,8,0,0,1-.19,1.7,4.12,4.12,0,0,1-.6,1.42,3,3,0,0,1-1.1,1,4.35,4.35,0,0,1-3.51,0,3.08,3.08,0,0,1-1.11-1,4.32,4.32,0,0,1-.6-1.42,8,8,0,0,1-.18-1.7V43.49h-2.16v9.4a8.63,8.63,0,0,0,.31,2.36,5.46,5.46,0,0,0,1,2,5,5,0,0,0,1.8,1.38,7.35,7.35,0,0,0,5.38,0,5,5,0,0,0,1.81-1.38,5.7,5.7,0,0,0,1-2,9,9,0,0,0,.31-2.36v-9.4h-2.16Z" transform="translate(-14.88 -17.47)"></path>
    <polygon class="cls-5" points="436.21 26.03 431.24 37.43 426.31 26.03 423.35 26.03 423.35 41.3 425.52 41.3 425.52 29.5 430.56 41.3 431.89 41.3 436.94 29.5 436.94 41.3 439.1 41.3 439.1 26.03 436.21 26.03"></polygon>
  </g>
</svg>
