<?xml version="1.0" encoding="UTF-8"?>
<svg xmlns="http://www.w3.org/2000/svg" viewBox="0 0 208.22 103.55">
  <defs>
    <style>.cls-1,.cls-2,.cls-3{fill:#77a88c;}.cls-1,.cls-2{stroke:#fff;stroke-miterlimit:10;}.cls-1{stroke-width:1.58px;}.cls-2{stroke-width:1.37px;}.cls-4{fill:#25303b;}</style>
  </defs>
  <title>KSH_stacked_cmyk</title>
  <g id="GLOBAL">
    <path class="cls-1" d="M85,138.22" transform="translate(-30.06 -31.8)"></path>
    <path class="cls-2" d="M63,103.58" transform="translate(-30.06 -31.8)"></path>
    <path class="cls-2" d="M73.51,103.59" transform="translate(-30.06 -31.8)"></path>
    <path class="cls-2" d="M82.79,134.88" transform="translate(-30.06 -31.8)"></path>
    <path class="cls-2" d="M67.79,103.58" transform="translate(-30.06 -31.8)"></path>
    <path class="cls-3" d="M87.25,112.2l0,.06-7.27-8.66-.29-.44L55.41,74.35h0l-11.76-14c-.31-.43-3.36-4.74-3.19-9.43.37-10.71,9.4-19.1,20.55-19.1,11.33,0,20.55,8.56,20.55,19.07,0,6.93-4.11,13.45-10.71,17a40,40,0,0,1-5.16,2.76l-1,.44L82.15,91.74,90,84.56V101l10.29,12.17.18,14.77ZM60.57,41.46c-5.66,0-10.27,4.31-10.27,9.61s7.16,11.6,7.47,11.87l.32.29.42-.1C59,63,71.51,59.77,70.84,51A10.24,10.24,0,0,0,60.57,41.46Z" transform="translate(-30.06 -31.8)"></path>
    <polyline class="cls-3" points="25.1 81.33 30.7 71.27 26.03 81.31"></polyline>
    <polygon class="cls-3" points="30.7 71.27 25.1 81.33 12.77 103.46 15.68 103.56 26.03 81.31 30.7 71.27"></polygon>
    <line class="cls-3" x1="24.74" y1="88.72" x2="24.52" y2="88.72"></line>
    <line class="cls-3" x1="12.18" y1="99.37" x2="11.93" y2="99.37"></line>
    <polygon class="cls-3" points="25.16 76.23 25.16 77.27 26.3 77.27 26.96 76.23 25.16 76.23"></polygon>
    <polygon class="cls-3" points="20.67 81.66 20.67 82.69 22.83 82.69 23.49 81.66 20.67 81.66"></polygon>
    <polygon class="cls-3" points="14.56 89.11 14.56 90.14 18.07 90.14 18.73 89.11 14.56 89.11"></polygon>
    <polygon class="cls-3" points="12.92 97.83 7.37 97.83 7.37 99.37 11.93 99.37 12.18 99.37 13.16 97.83 12.92 97.83"></polygon>
    <polygon class="cls-3" points="28.6 73.28 27.51 73.28 27.25 73.28 25.16 75.83 25.42 75.83 26.98 75.83 27.22 75.83 28.84 73.29 28.6 73.28"></polygon>
    <polygon class="cls-3" points="22.8 78.71 20.66 81.31 23.72 81.3 25.36 78.75 22.8 78.71"></polygon>
    <polygon class="cls-3" points="17.35 85.34 14.55 88.76 18.98 88.72 21.14 85.34 17.35 85.34"></polygon>
    <polygon class="cls-3" points="15.75 93.39 11.02 93.39 10.75 93.39 7.37 97.52 7.64 97.52 13.12 97.51 13.37 97.51 16 93.39 15.75 93.39"></polygon>
    <path class="cls-2" d="M68,103.58" transform="translate(-30.06 -31.8)"></path>
    <path class="cls-2" d="M57.51,103.59" transform="translate(-30.06 -31.8)"></path>
    <path class="cls-2" d="M63.23,103.58" transform="translate(-30.06 -31.8)"></path>
    <polyline class="cls-3" points="45.8 81.33 40.2 71.27 44.87 81.31"></polyline>
    <polygon class="cls-3" points="40.2 71.27 45.8 81.33 58.12 103.46 55.22 103.56 44.87 81.31 40.2 71.27"></polygon>
    <line class="cls-3" x1="46.15" y1="88.72" x2="46.37" y2="88.72"></line>
    <line class="cls-3" x1="58.72" y1="99.37" x2="58.96" y2="99.37"></line>
    <polygon class="cls-3" points="45.74 76.23 45.74 77.27 44.59 77.27 43.94 76.23 45.74 76.23"></polygon>
    <polygon class="cls-3" points="50.23 81.66 50.23 82.69 48.06 82.69 47.41 81.66 50.23 81.66"></polygon>
    <polygon class="cls-3" points="56.34 89.11 56.34 90.14 52.82 90.14 52.16 89.11 56.34 89.11"></polygon>
    <polygon class="cls-3" points="57.98 97.83 63.53 97.83 63.53 99.37 58.96 99.37 58.72 99.37 57.73 97.83 57.98 97.83"></polygon>
    <line class="cls-3" x1="63.26" y1="97.52" x2="63.53" y2="97.52"></line>
    <polygon class="cls-3" points="42.3 73.28 43.39 73.28 43.65 73.28 45.74 75.83 45.48 75.83 43.92 75.83 43.68 75.83 42.05 73.29 42.3 73.28"></polygon>
    <polygon class="cls-3" points="48.1 78.71 50.23 81.31 47.17 81.3 45.54 78.75 48.1 78.71"></polygon>
    <polygon class="cls-3" points="53.54 85.34 56.34 88.76 51.91 88.72 49.76 85.34 53.54 85.34"></polygon>
    <polygon class="cls-3" points="55.14 93.39 59.88 93.39 60.15 93.39 63.53 97.52 63.26 97.52 57.77 97.51 57.53 97.51 54.9 93.39 55.14 93.39"></polygon>
    <polygon class="cls-3" points="41.33 77.27 41.4 77.27 41.4 76.23 41.33 76.23 29.57 76.23 29.5 76.23 29.5 77.27 29.57 77.27 41.33 77.27"></polygon>
    <polygon class="cls-3" points="43.43 82.69 43.47 82.69 43.47 81.66 43.43 81.66 27.47 81.66 27.43 81.66 27.43 82.69 27.47 82.69 43.43 82.69"></polygon>
    <polygon class="cls-3" points="21.21 97.89 21.19 97.89 21.19 99.43 21.21 99.43 21.21 99.49 35.45 99.46 49.68 99.49 49.68 99.43 49.7 99.43 49.7 97.89 49.68 97.89 21.21 97.89"></polygon>
    <polygon class="cls-3" points="21.41 97.49 49.49 97.49 49.67 97.49 49.71 97.49 48.13 93.39 48.1 93.39 22.8 93.39 22.77 93.39 21.19 97.49 21.23 97.49 21.41 97.49"></polygon>
    <polygon class="cls-3" points="29.75 75.83 41.15 75.83 41.36 75.83 41.37 75.83 40.39 73.28 40.38 73.28 40.16 73.28 30.73 73.28 30.52 73.28 30.51 73.28 29.53 75.83 29.54 75.83 29.75 75.83"></polygon>
    <polygon class="cls-3" points="43.44 81.25 43.46 81.25 42.48 78.7 42.46 78.7 28.44 78.7 28.42 78.7 27.44 81.25 27.46 81.25 43.44 81.25"></polygon>
    <polygon class="cls-3" points="46.3 88.72 46.37 88.72 45.07 85.34 45.01 85.34 25.89 85.34 25.83 85.34 24.52 88.72 24.59 88.72 46.3 88.72"></polygon>
    <polygon class="cls-3" points="46.3 90.14 46.39 90.14 46.39 89.11 46.3 89.11 24.59 89.11 24.51 89.11 24.51 90.14 24.59 90.14 46.3 90.14"></polygon>
    <path class="cls-3" d="M42.32,118.27l6.21-8.55a19.85,19.85,0,0,1-7.36-15.31c0-8.09,5-15.29,12.84-18.61L47.1,67.56c-10.53,5.42-17,15.66-17,26.85A29.72,29.72,0,0,0,42.32,118.27Z" transform="translate(-30.06 -31.8)"></path>
    <polygon class="cls-4" points="82.24 8.22 89.27 15.73 89.32 15.78 92.39 15.78 84.52 7.53 92.07 0.57 89.01 0.57 82.25 6.99 82.24 0.57 80.13 0.57 80.13 15.78 82.24 15.78 82.24 8.22"></polygon>
    <polygon class="cls-4" points="104.48 13.8 96.52 13.8 96.52 8.85 103.6 8.85 103.6 6.87 96.52 6.87 96.52 2.55 104.11 2.55 104.11 0.57 94.41 0.57 94.41 15.78 104.48 15.78 104.48 13.8"></polygon>
    <polygon class="cls-4" points="110.03 3.76 118.41 15.78 120.91 15.78 120.91 0.57 118.79 0.57 118.79 12.59 110.41 0.57 107.91 0.57 107.91 15.78 110.03 15.78 110.03 3.76"></polygon>
    <polygon class="cls-4" points="128.6 15.78 130.71 15.78 130.71 2.55 135.63 2.55 135.63 0.57 123.68 0.57 123.68 2.55 128.6 2.55 128.6 15.78"></polygon>
    <polygon class="cls-4" points="89.83 31.37 82.24 31.37 82.24 25.07 80.13 25.07 80.13 40.28 82.24 40.28 82.24 33.35 89.83 33.35 89.83 40.28 91.95 40.28 91.95 25.07 89.83 25.07 89.83 31.37"></polygon>
    <rect class="cls-4" x="96.34" y="25.07" width="2.11" height="15.22"></rect>
    <path class="cls-4" d="M141.56,70a4.3,4.3,0,0,0,.46-2,4.1,4.1,0,0,0-.39-1.89,3.66,3.66,0,0,0-1-1.27,5.71,5.71,0,0,0-1.48-.82c-.53-.21-1.1-.41-1.68-.59a13.88,13.88,0,0,1-1.47-.54,4.2,4.2,0,0,1-.92-.56,1.77,1.77,0,0,1-.47-.64,2.37,2.37,0,0,1-.14-.83,2,2,0,0,1,.92-1.76,3,3,0,0,1,1-.42,3.94,3.94,0,0,1,2.58.17,2.43,2.43,0,0,1,1.09,1l.11.18,1.74-1.51-.12-.14a4.7,4.7,0,0,0-1.93-1.4,7,7,0,0,0-4.3-.12,5.35,5.35,0,0,0-1.67.84A4,4,0,0,0,132.2,61a4.12,4.12,0,0,0,.3,1.65,3.44,3.44,0,0,0,.81,1.19,4.55,4.55,0,0,0,1.21.83,11.28,11.28,0,0,0,1.49.59l1.72.59a4.82,4.82,0,0,1,1.18.55,1.86,1.86,0,0,1,.66.68,2.21,2.21,0,0,1,.21,1,1.92,1.92,0,0,1-.27,1,2.45,2.45,0,0,1-.71.76,3.27,3.27,0,0,1-1,.46,3.88,3.88,0,0,1-2.85-.24,2.88,2.88,0,0,1-1.27-1.17l-.1-.17-1.8,1.47.09.13a3.94,3.94,0,0,0,1,1A5.74,5.74,0,0,0,134,72a7,7,0,0,0,1.28.37,8.52,8.52,0,0,0,1.33.11,7.78,7.78,0,0,0,2-.26,5.24,5.24,0,0,0,1.73-.83A4.37,4.37,0,0,0,141.56,70Z" transform="translate(-30.06 -31.8)"></path>
    <polygon class="cls-4" points="113.96 27.05 118.88 27.05 118.88 40.28 120.99 40.28 120.99 27.05 125.9 27.05 125.9 25.07 113.96 25.07 113.96 27.05"></polygon>
    <path class="cls-4" d="M169,71.86a7.74,7.74,0,0,0,2.51-1.66,7.46,7.46,0,0,0,1.66-2.54,8.89,8.89,0,0,0,0-6.37,7.42,7.42,0,0,0-1.66-2.53A7.61,7.61,0,0,0,169,57.09a8.75,8.75,0,0,0-6.37,0,7.61,7.61,0,0,0-2.51,1.67,7.42,7.42,0,0,0-1.66,2.53,8.89,8.89,0,0,0,0,6.37,7.46,7.46,0,0,0,1.66,2.54,7.74,7.74,0,0,0,2.51,1.66,8.75,8.75,0,0,0,6.37,0Zm-3.18-13.38a5.68,5.68,0,0,1,2.31.47,5.52,5.52,0,0,1,1.8,1.28,5.88,5.88,0,0,1,1.17,1.91,6.44,6.44,0,0,1,.42,2.34,6.52,6.52,0,0,1-.42,2.34,6.1,6.1,0,0,1-1.17,1.91,5.52,5.52,0,0,1-1.8,1.28,5.94,5.94,0,0,1-4.63,0,5.52,5.52,0,0,1-1.8-1.28,6.1,6.1,0,0,1-1.17-1.91,6.73,6.73,0,0,1,0-4.68,5.88,5.88,0,0,1,1.17-1.91,5.52,5.52,0,0,1,1.8-1.28A5.69,5.69,0,0,1,165.83,58.48Z" transform="translate(-30.06 -31.8)"></path>
    <path class="cls-4" d="M186.34,63.91a3.82,3.82,0,0,0,1-2.77,4.21,4.21,0,0,0-.55-2.29,3.65,3.65,0,0,0-1.44-1.29,5.67,5.67,0,0,0-2-.56,17.12,17.12,0,0,0-2.15-.13h-4V72.09h2.11V65.41h2l4,6.68H188l-4.25-6.9A4.83,4.83,0,0,0,186.34,63.91Zm-1.2-2.77a1.91,1.91,0,0,1-.39,1.3,2.36,2.36,0,0,1-1,.68,5.44,5.44,0,0,1-1.4.26c-.51,0-1,0-1.51,0h-1.4V58.86h2.3a9,9,0,0,1,1.27.08,3.15,3.15,0,0,1,1.1.33,2,2,0,0,1,.76.68A2.16,2.16,0,0,1,185.14,61.14Z" transform="translate(-30.06 -31.8)"></path>
    <rect class="cls-4" x="161.13" y="25.07" width="2.11" height="15.22"></rect>
    <path class="cls-4" d="M208.74,68.46a5.37,5.37,0,0,1-1.81,1.5,5.33,5.33,0,0,1-6.31-1.22,5.94,5.94,0,0,1-1.14-1.9,6.72,6.72,0,0,1-.4-2.36,6.48,6.48,0,0,1,.4-2.28,6,6,0,0,1,1.15-1.92A5.53,5.53,0,0,1,202.37,59a5,5,0,0,1,2.2-.48,4.75,4.75,0,0,1,2,.43,4.23,4.23,0,0,1,1.59,1.3l.1.14L210.07,59l-.11-.14a5.51,5.51,0,0,0-2.42-1.84,8.08,8.08,0,0,0-3-.56,7.52,7.52,0,0,0-7.17,4.86,8.74,8.74,0,0,0-.56,3.13,8.31,8.31,0,0,0,.59,3.19,7.75,7.75,0,0,0,1.63,2.53,7.63,7.63,0,0,0,2.46,1.66,7.75,7.75,0,0,0,3,.6,8,8,0,0,0,3.27-.64,6.31,6.31,0,0,0,2.5-2l.1-.13-1.59-1.34Z" transform="translate(-30.06 -31.8)"></path>
    <path class="cls-4" d="M218.42,56.87l-6.71,15.22h2.38l1.54-3.66h7.2l1.51,3.66h2.44l-6.47-15.22ZM222,66.44h-5.54l2.84-6.72Z" transform="translate(-30.06 -31.8)"></path>
    <polygon class="cls-4" points="201.42 38.3 201.42 25.07 199.3 25.07 199.3 40.28 208.22 40.28 208.22 38.3 201.42 38.3"></polygon>
    <path class="cls-4" d="M117.87,89.28a5.65,5.65,0,0,0-1.47-.82c-.54-.21-1.1-.41-1.68-.59a13.1,13.1,0,0,1-1.47-.54,4,4,0,0,1-.92-.56,1.66,1.66,0,0,1-.47-.64,2.16,2.16,0,0,1-.14-.83,2.09,2.09,0,0,1,.25-1,2,2,0,0,1,.66-.71,3.14,3.14,0,0,1,1-.42,3.91,3.91,0,0,1,2.57.17,2.4,2.4,0,0,1,1.1,1l.11.18,1.74-1.51-.12-.14a4.7,4.7,0,0,0-1.93-1.4,7,7,0,0,0-4.3-.12,5.35,5.35,0,0,0-1.67.84,4.17,4.17,0,0,0-1.18,1.39,4,4,0,0,0-.44,2,4.31,4.31,0,0,0,.29,1.65,3.61,3.61,0,0,0,.82,1.19,4.55,4.55,0,0,0,1.21.83,10.76,10.76,0,0,0,1.49.59l1.72.59a4.82,4.82,0,0,1,1.18.55,1.86,1.86,0,0,1,.66.68,2.21,2.21,0,0,1,.21,1,1.92,1.92,0,0,1-.27,1,2.45,2.45,0,0,1-.71.76,3.22,3.22,0,0,1-1,.46,3.86,3.86,0,0,1-2.84-.24A2.88,2.88,0,0,1,111,93.4l-.11-.17-1.79,1.47.09.13a4.08,4.08,0,0,0,.94,1,5.82,5.82,0,0,0,1.17.65,6.74,6.74,0,0,0,1.28.37,8.52,8.52,0,0,0,1.33.11,7.78,7.78,0,0,0,2-.26,5.24,5.24,0,0,0,1.73-.83,4.37,4.37,0,0,0,1.22-1.41,4.3,4.3,0,0,0,.46-2,4.1,4.1,0,0,0-.39-1.89A3.68,3.68,0,0,0,117.87,89.28Z" transform="translate(-30.06 -31.8)"></path>
    <path class="cls-4" d="M135.7,83.26a7.65,7.65,0,0,0-2.52-1.67A8.23,8.23,0,0,0,130,81a8.31,8.31,0,0,0-3.19.6,7.71,7.71,0,0,0-2.51,1.67,7.57,7.57,0,0,0-1.66,2.53,8.89,8.89,0,0,0,0,6.37,7.61,7.61,0,0,0,1.66,2.54,7.85,7.85,0,0,0,2.51,1.66A8.31,8.31,0,0,0,130,97a8.23,8.23,0,0,0,3.18-.6,7.79,7.79,0,0,0,2.52-1.66,7.44,7.44,0,0,0,1.65-2.54,8.89,8.89,0,0,0,0-6.37A7.4,7.4,0,0,0,135.7,83.26ZM130,95a5.61,5.61,0,0,1-2.31-.47,5.42,5.42,0,0,1-1.8-1.28,6.13,6.13,0,0,1-1.18-1.91,6.73,6.73,0,0,1,0-4.68,5.91,5.91,0,0,1,1.18-1.91,5.32,5.32,0,0,1,1.8-1.28,5.91,5.91,0,0,1,4.62,0,5.42,5.42,0,0,1,1.8,1.28,5.91,5.91,0,0,1,1.18,1.91A6.65,6.65,0,0,1,135.7,89a6.73,6.73,0,0,1-.41,2.34,6.13,6.13,0,0,1-1.18,1.91,5.42,5.42,0,0,1-1.8,1.28A5.61,5.61,0,0,1,130,95Z" transform="translate(-30.06 -31.8)"></path>
    <path class="cls-4" d="M152.52,93a5.06,5.06,0,0,1-4.17,2,5.19,5.19,0,0,1-2.22-.47,5.35,5.35,0,0,1-1.73-1.27,5.92,5.92,0,0,1-1.13-1.9,6.72,6.72,0,0,1-.41-2.36,6.48,6.48,0,0,1,.41-2.28,6,6,0,0,1,1.14-1.92,5.65,5.65,0,0,1,1.74-1.32,5.06,5.06,0,0,1,2.2-.48,4.72,4.72,0,0,1,2,.43,4.16,4.16,0,0,1,1.59,1.3l.1.14,1.82-1.32-.11-.14a5.49,5.49,0,0,0-2.41-1.84,8.17,8.17,0,0,0-3-.56,7.56,7.56,0,0,0-5.56,2.32,7.51,7.51,0,0,0-1.6,2.54,8.9,8.9,0,0,0,0,6.32,7.75,7.75,0,0,0,1.63,2.53,7.63,7.63,0,0,0,2.46,1.66,7.79,7.79,0,0,0,3,.6,8,8,0,0,0,3.28-.64,6.28,6.28,0,0,0,2.49-2l.1-.13-1.59-1.34Z" transform="translate(-30.06 -31.8)"></path>
    <rect class="cls-4" x="127.25" y="49.57" width="2.11" height="15.22"></rect>
    <polygon class="cls-4" points="135.88 57.85 142.96 57.85 142.96 55.87 135.88 55.87 135.88 51.55 143.46 51.55 143.46 49.57 133.76 49.57 133.76 64.78 143.84 64.78 143.84 62.8 135.88 62.8 135.88 57.85"></polygon>
    <polygon class="cls-4" points="145.65 51.55 150.56 51.55 150.56 64.78 152.68 64.78 152.68 51.55 157.59 51.55 157.59 49.57 145.65 49.57 145.65 51.55"></polygon>
    <polygon class="cls-4" points="165.94 56.13 161.85 49.57 159.19 49.57 164.88 58.26 164.88 64.78 166.99 64.78 166.99 58.26 172.68 49.57 170.14 49.57 165.94 56.13"></polygon>
    <polygon class="cls-3" points="85.05 92.84 80.12 81.44 77.16 81.44 77.16 96.7 79.33 96.7 79.33 84.91 84.37 96.7 85.7 96.7 90.75 84.91 90.75 96.7 92.91 96.7 92.91 81.44 90.02 81.44 85.05 92.84"></polygon>
    <path class="cls-3" d="M136.7,122.38a7.84,7.84,0,0,1-.18,1.7,4.17,4.17,0,0,1-.6,1.43,3,3,0,0,1-1.1,1,4.35,4.35,0,0,1-3.51,0,3.08,3.08,0,0,1-1.11-1,4.25,4.25,0,0,1-.6-1.43,7.84,7.84,0,0,1-.18-1.7v-9.14h-2.16v9.4a8.68,8.68,0,0,0,.31,2.36,5.49,5.49,0,0,0,1,2,4.82,4.82,0,0,0,1.8,1.38,7.35,7.35,0,0,0,5.38,0,4.85,4.85,0,0,0,1.81-1.38,5.65,5.65,0,0,0,1-2,9.09,9.09,0,0,0,.31-2.36v-9.4H136.7Z" transform="translate(-30.06 -31.8)"></path>
    <path class="cls-3" d="M150.88,121.16a5.61,5.61,0,0,0-1.48-.83c-.54-.21-1.11-.41-1.68-.59a13.1,13.1,0,0,1-1.47-.54,3.39,3.39,0,0,1-.92-.56,1.7,1.7,0,0,1-.46-.63,2.21,2.21,0,0,1-.14-.81,2,2,0,0,1,.9-1.75,3.44,3.44,0,0,1,1-.41,3.88,3.88,0,0,1,2.56.17,2.41,2.41,0,0,1,1.09,1l.12.2,1.78-1.55-.13-.15a4.82,4.82,0,0,0-1.94-1.41,6.7,6.7,0,0,0-2.37-.4,6.62,6.62,0,0,0-1.95.28,5.41,5.41,0,0,0-1.68.84,4.12,4.12,0,0,0-1.19,1.4,4.68,4.68,0,0,0-.14,3.63,3.61,3.61,0,0,0,.82,1.2,4.45,4.45,0,0,0,1.22.83,10.76,10.76,0,0,0,1.49.59l1.72.59a5.13,5.13,0,0,1,1.17.54,1.88,1.88,0,0,1,.65.67,2.19,2.19,0,0,1,.21,1,1.88,1.88,0,0,1-.27,1,2.39,2.39,0,0,1-.7.75,3.3,3.3,0,0,1-1,.47,3.9,3.9,0,0,1-2.82-.24,2.89,2.89,0,0,1-1.26-1.16l-.12-.21L142,126.59l.1.15a3.94,3.94,0,0,0,1,1,5.34,5.34,0,0,0,1.16.66,7.06,7.06,0,0,0,1.29.37,8.75,8.75,0,0,0,1.34.11,7.5,7.5,0,0,0,2-.27,5.24,5.24,0,0,0,1.73-.83,4.09,4.09,0,0,0,1.22-1.42,4.71,4.71,0,0,0,.08-3.93A3.7,3.7,0,0,0,150.88,121.16Z" transform="translate(-30.06 -31.8)"></path>
    <polygon class="cls-3" points="127.98 89.77 135.06 89.77 135.06 87.73 127.98 87.73 127.98 83.47 135.56 83.47 135.56 81.44 125.82 81.44 125.82 96.7 135.94 96.7 135.94 94.67 127.98 94.67 127.98 89.77"></polygon>
    <path class="cls-3" d="M178.77,122.38a7.26,7.26,0,0,1-.19,1.7,4.17,4.17,0,0,1-.6,1.43,3,3,0,0,1-1.1,1,4.35,4.35,0,0,1-3.51,0,3,3,0,0,1-1.1-1,4.06,4.06,0,0,1-.6-1.43,7.26,7.26,0,0,1-.19-1.7v-9.14h-2.16v9.4a8.68,8.68,0,0,0,.31,2.36,5.65,5.65,0,0,0,1,2,4.85,4.85,0,0,0,1.81,1.38,7.32,7.32,0,0,0,5.37,0,4.85,4.85,0,0,0,1.81-1.38,5.65,5.65,0,0,0,1-2,8.68,8.68,0,0,0,.31-2.36v-9.4h-2.16Z" transform="translate(-30.06 -31.8)"></path>
    <polygon class="cls-3" points="168.01 81.44 163.04 92.84 158.11 81.44 155.16 81.44 155.16 96.7 157.32 96.7 157.32 84.91 162.36 96.7 163.7 96.7 168.74 84.91 168.74 96.7 170.91 96.7 170.91 81.44 168.01 81.44"></polygon>
  </g>
</svg>
