<svg id="Layer_1" data-name="Layer 1" xmlns="http://www.w3.org/2000/svg" width="97.69" height="97.69" viewBox="0 0 97.69 97.69">
  <title>instagram-black</title>
  <path id="instagram-circle-icon" d="M66.12,33.71v4.42a1.28,1.28,0,0,1-1.28,1.28H60.51a1.28,1.28,0,0,1-1.28-1.28V33.71a1.28,1.28,0,0,1,1.28-1.28h4.33a1.28,1.28,0,0,1,1.28,1.28h0ZM49.54,55.51a5.9,5.9,0,1,0-5.9-5.9,5.9,5.9,0,0,0,5.9,5.9h0ZM85,49.42a36,36,0,1,1-36-36,36,36,0,0,1,36,36h0ZM49.51,57.61A8,8,0,1,0,42.31,53a8,8,0,0,0,7.2,4.64v0Z" style="fill: #fff"/>
  <path d="M68.78,43.61H57a10.36,10.36,0,1,1-16.89,0H28.3V61.76a8,8,0,0,0,8,8H60.78a8,8,0,0,0,8-8V43.61h0Z" style="fill: #191919"/>
  <path d="M68.78,37.08a8,8,0,0,0-8-8H38.89v10.1H37.25V29.07H36.12v10.1H34.48V29.28a8,8,0,0,0-1.16.36v9.52H31.68V30.55a8,8,0,0,0-3.38,6.53v5.26H41.13a10.35,10.35,0,0,1,14.64-.12l0.12,0.12H68.78V37.08h0Z" style="fill: #191919"/>
</svg>
