<svg id="Layer_1" data-name="Layer 1" xmlns="http://www.w3.org/2000/svg" xmlns:xlink="http://www.w3.org/1999/xlink" width="97.69" height="97.69" viewBox="0 0 97.69 97.69">
  <defs>
    <clipPath id="clip-path">
      <circle cx="48.85" cy="48.85" r="36" style="fill: none"/>
    </clipPath>
  </defs>
  <title>linkedin-black</title>
  <g style="clip-path: url(#clip-path)">
    <rect x="7.85" y="7.85" width="82" height="82" style="fill: #fff"/>
  </g>
  <path d="M58.72,31.91H39a7.06,7.06,0,0,0-7.09,7V58.72A7.06,7.06,0,0,0,39,65.78H58.72a7.06,7.06,0,0,0,7.06-7.06V39a7.06,7.06,0,0,0-7-7.09H58.72ZM43.2,58.72H39V43.2h4.2V58.72ZM41.09,41.41a2.49,2.49,0,1,1,2.47-2.51h0a2.48,2.48,0,0,1-2.47,2.49h0v0Zm19,17.31H55.9v-7.9c0-4.75-5.64-4.39-5.64,0v7.91H46V43.2h4.23v2.49c2-3.65,9.88-3.92,9.88,3.49v9.54h0Z" style="fill: #191919"/>
</svg>
