<svg id="Layer_1" data-name="Layer 1" xmlns="http://www.w3.org/2000/svg" xmlns:xlink="http://www.w3.org/1999/xlink" viewBox="0 0 97.69 97.69"><defs><clipPath id="clip-path"><circle cx="48.85" cy="48.85" r="36" style="fill:none"/></clipPath></defs><title>tumblr-white</title><g style="clip-path:url(#clip-path)"><rect x="7.85" y="7.85" width="82" height="82" style="fill:#fff"/></g><path d="M58.62,56.84l-0.14-.1H53.6a1.15,1.15,0,0,1-.24-0.93v-8.5a0.15,0.15,0,0,1,.15-0.15H59.2A0.15,0.15,0,0,0,59.35,47h0V38.42a0.15,0.15,0,0,0-.15-0.15H53.54a0.15,0.15,0,0,1-.15-0.15h0V31a0.15,0.15,0,0,0-.15-0.15H42.59a1.73,1.73,0,0,0-1.69,1.54c-0.51,4.14-2.8,6.14-6.37,7.33l-0.4.13L34,40v7a0.15,0.15,0,0,0,.15.15H38.5v9.17c0,6.94,4.53,10.21,13.41,10.21,3.57,0,7.52-1.27,8.69-2.82l0.23-.31Zm0.5,6.34c-1.12,1.07-3.8,1.87-6,1.91H52.88c-7.22,0-8.46-5.51-8.46-8.77V45.84a0.15,0.15,0,0,0-.15-0.15H40.13A0.15,0.15,0,0,1,40,45.54V41l0.1-.14c3.73-1.45,5.81-3.86,6.36-8.33a0.26,0.26,0,0,1,.24-0.25h5.13a0.15,0.15,0,0,1,.15.15h0v7.17a0.15,0.15,0,0,0,.15.15h5.66a0.15,0.15,0,0,1,.15.15h0v5.66a0.15,0.15,0,0,1-.15.15H52a0.15,0.15,0,0,0-.14.15v10C51.94,58,53,59.06,55,59.06a7.09,7.09,0,0,0,2.51-.51,0.15,0.15,0,0,1,.19.09L59.16,63Z" style="fill:#fff"/></svg>