<?xml version="1.0" encoding="utf-8"?>
<!-- Generator: Adobe Illustrator 21.0.2, SVG Export Plug-In . SVG Version: 6.00 Build 0)  -->
<svg version="1.1" id="Layer_1" xmlns="http://www.w3.org/2000/svg" xmlns:xlink="http://www.w3.org/1999/xlink" x="0px" y="0px"
	 viewBox="0 0 97.693 97.693" style="enable-background:new 0 0 97.693 97.693;" xml:space="preserve">
<style type="text/css">
	.st0{fill:#1F3C72;}
</style>
<path id="twitter-4-icon_2_" class="st0" d="M49.353,13.422c-19.882,0-36,16.117-36,36s16.118,36,36,36c19.883,0,36-16.117,36-36
	S69.236,13.422,49.353,13.422z M67.459,43.219c0.527,11.744-8.231,24.838-23.733,24.838c-4.715,0-9.104-1.383-12.799-3.752
	c4.43,0.522,8.851-0.706,12.361-3.458c-3.653-0.067-6.737-2.481-7.799-5.798c1.308,0.25,2.595,0.177,3.77-0.143
	c-4.016-0.808-6.787-4.425-6.697-8.293c1.126,0.625,2.414,1.001,3.783,1.044c-3.719-2.484-4.771-7.395-2.584-11.147
	c4.117,5.052,10.27,8.376,17.209,8.725c-1.217-5.224,2.745-10.253,8.134-10.253c2.402,0,4.572,1.014,6.095,2.637
	c1.901-0.374,3.688-1.069,5.302-2.026c-0.623,1.95-1.947,3.587-3.671,4.619c1.688-0.201,3.298-0.65,4.796-1.315
	C70.506,40.571,69.09,42.042,67.459,43.219z"/>
<g>
</g>
<g>
</g>
<g>
</g>
<g>
</g>
<g>
</g>
</svg>
