<svg id="Layer_1" data-name="Layer 1" xmlns="http://www.w3.org/2000/svg" width="97.69" height="97.69" viewBox="0 0 97.69 97.69">
  <title>twitter-black</title>
  <path id="twitter-4-icon" d="M49.35,13.42a36,36,0,1,0,36,36h0A36,36,0,0,0,49.35,13.42Z" style="fill: #fcfcfc"/>
  <path d="M65.46,41.22C66,53,57.23,66.06,41.73,66.06a23.63,23.63,0,0,1-12.8-3.75,16.79,16.79,0,0,0,12.36-3.46,8.36,8.36,0,0,1-7.8-5.8,8.36,8.36,0,0,0,3.77-.14,8.36,8.36,0,0,1-6.7-8.29,8.32,8.32,0,0,0,3.78,1,8.36,8.36,0,0,1-2.58-11.15A23.7,23.7,0,0,0,49,43.24a8.36,8.36,0,0,1,14.2-7.62,16.72,16.72,0,0,0,5.3-2,8.37,8.37,0,0,1-3.67,4.62,16.65,16.65,0,0,0,4.8-1.31A17,17,0,0,1,65.46,41.22Z" style="fill: #191919"/>
</svg>
