<svg id="Layer_1" data-name="Layer 1" xmlns="http://www.w3.org/2000/svg" xmlns:xlink="http://www.w3.org/1999/xlink" viewBox="0 0 97.69 97.69"><defs><clipPath id="clip-path"><circle cx="48.85" cy="48.85" r="36" style="fill:none"/></clipPath></defs><title>web</title><g style="clip-path:url(#clip-path)"><rect x="7.85" y="7.85" width="82" height="82" style="fill:#1f3c72"/></g><path d="M40.48,44.12a9.24,9.24,0,0,1,14.24,1.41l-3.23,3.23A4.87,4.87,0,0,0,46,46a4.79,4.79,0,0,0-2.35,1.29l-6.2,6.2a4.83,4.83,0,1,0,6.82,6.82l1.91-1.91a12.28,12.28,0,0,0,5.44.83l-4.22,4.22A9.26,9.26,0,0,1,34.28,50.32Zm9.84-9.84L46.1,38.5a12.29,12.29,0,0,1,5.44.83l1.91-1.91a4.83,4.83,0,0,1,6.82,6.82l-6.2,6.2a4.83,4.83,0,0,1-6.82,0,5.14,5.14,0,0,1-1-1.51L43,52.16a8.69,8.69,0,0,0,1.15,1.41,9.25,9.25,0,0,0,13.09,0l6.2-6.2A9.26,9.26,0,1,0,50.32,34.28Z" style="fill:#fff"/></svg>