<svg id="Layer_1" data-name="Layer 1" xmlns="http://www.w3.org/2000/svg" width="97.69" height="97.69" viewBox="0 0 97.69 97.69">
  <title>youtube-black</title>
  <g id="twitter-4-icon">
    <circle cx="49.35" cy="49.42" r="36" style="fill: #fff"/>
  </g>
  <rect x="22.72" y="26.76" width="48" height="48" style="fill: none"/>
  <path d="M61.2,47.88a6.82,6.82,0,0,1,2,.32,5.42,5.42,0,0,1,1.47.74A5,5,0,0,1,66,50.29a5.4,5.4,0,0,1,.57,1.18,6.74,6.74,0,0,1,.34,2.08c0,3.28,0,6.56,0,9.84a6.67,6.67,0,0,1-.36,2.07,5.36,5.36,0,0,1-.58,1.17A5,5,0,0,1,64.63,68a5.43,5.43,0,0,1-1.42.7,6.77,6.77,0,0,1-1.93.31c-9.71.15-19.42,0.18-29.12,0a5.93,5.93,0,0,1-1.72-.3,5.36,5.36,0,0,1-1.89-1.11,6.07,6.07,0,0,1-1.73-2.88,7.41,7.41,0,0,1-.25-1.78q-0.07-4.72,0-9.44a6.67,6.67,0,0,1,.36-2.07,5.36,5.36,0,0,1,.58-1.17,5,5,0,0,1,1.3-1.34,5.43,5.43,0,0,1,1.42-.7,6.77,6.77,0,0,1,1.93-.31c9.68-.15,19.36-0.05,29,0h0ZM32.26,49.8a5,5,0,0,0-1.2.15,3.42,3.42,0,0,0-1.59.89,3.12,3.12,0,0,0-.41.52,3.58,3.58,0,0,0-.38.82,4.87,4.87,0,0,0-.21,1.39c0,3.1,0,6.2,0,9.3a5.53,5.53,0,0,0,.17,1.25,4.16,4.16,0,0,0,1.18,2,3.45,3.45,0,0,0,1.22.72,4,4,0,0,0,1.21.2h2V55.56H32.32V49.8H32.26ZM40,67.08h1.57A3.36,3.36,0,0,1,41,67a3.57,3.57,0,0,1-1-.43l0,0v0.54Zm1.91,0h0ZM32.32,49.8h9.6v2.88h3.84V49.8h5.76v2.82H51.7a4.33,4.33,0,0,1,.61.09,3.56,3.56,0,0,1,1.76,1l0,0,0.08-.07,0.11-.08a4.26,4.26,0,0,1,.55-0.34A5.49,5.49,0,0,1,57,52.69a5.36,5.36,0,0,1,2.91.54,3.93,3.93,0,0,1,.61.42,4.2,4.2,0,0,1,.66.68,4.12,4.12,0,0,1,.74,1.61,6.44,6.44,0,0,1,.14,1.32c0,1.67,0,3.35,0,5h0q0,0.18,0,.37a6.45,6.45,0,0,1-.16,1.14,3.9,3.9,0,0,1-.69,1.46c-0.08.1-.17,0.2-0.26,0.3a4.37,4.37,0,0,1-.36.34,4.15,4.15,0,0,1-1.11.66,5.45,5.45,0,0,1-1.68.37A5.4,5.4,0,0,1,55,66.39a4.58,4.58,0,0,1-.83-0.56l0,0L53.94,66l-0.19.18a4.27,4.27,0,0,1-.48.36,3.18,3.18,0,0,1-1.72.55h0c3.24,0,6.48,0,9.71,0h0.29a4.46,4.46,0,0,0,1.26-.27,3.4,3.4,0,0,0,.74-0.39A3.13,3.13,0,0,0,64,66a3.48,3.48,0,0,0,.84-1.6A5.13,5.13,0,0,0,65,63.3c0-3.26.05-6.52,0-9.78a4.77,4.77,0,0,0-.22-1.37,3.5,3.5,0,0,0-.38-0.81A3.16,3.16,0,0,0,64,50.85,3.41,3.41,0,0,0,62.42,50a5,5,0,0,0-1.18-.16c-9.64-.15-19.28,0-28.92,0h0ZM40,54.6c0,2.9,0,5.8,0,8.7,0,0.05,0,.1,0,0.16a1.59,1.59,0,0,0,.1.39,2,2,0,0,0,.29.48l0.16,0.2a2.39,2.39,0,0,0,.42.37,1.41,1.41,0,0,0,.74.28h0.36a2.2,2.2,0,0,0,.48-0.07A2.11,2.11,0,0,0,43,64.91a2.47,2.47,0,0,0,.47-0.3,3.65,3.65,0,0,0,.4-0.42v1h1.92V54.6H43.84v7.68l0,0,0,0.09c0,0.1-.08.2-0.12,0.3l-0.06.12a0.83,0.83,0,0,1-.23.26,0.79,0.79,0,0,1-.37.13,0.9,0.9,0,0,1-.55-0.11A1.09,1.09,0,0,1,42,62.6a1,1,0,0,1-.08-0.3V54.6H40Zm7.68-2.88V65.16H49.6v-1l0.19,0.21a2.75,2.75,0,0,0,.53.44,2.18,2.18,0,0,0,.93.3,1.67,1.67,0,0,0,.49,0,1.85,1.85,0,0,0,.93-0.58,2.69,2.69,0,0,0,.7-1.15,2.58,2.58,0,0,0,.08-0.58q0-3,0-5.9a3.43,3.43,0,0,0-.07-0.63,2.67,2.67,0,0,0-.4-0.94A2,2,0,0,0,52.64,55a1.63,1.63,0,0,0-.41-0.26,1.86,1.86,0,0,0-.44-0.13,2.08,2.08,0,0,0-.62,0,2.11,2.11,0,0,0-.58.17,2.29,2.29,0,0,0-1,.83V51.72H47.68Zm-13.44,0v1.92h1.92V65.16h1.92V53.64H40V51.72H34.24ZM57.38,54.6a4.67,4.67,0,0,0-1.12.15,2.74,2.74,0,0,0-.6.23,1.78,1.78,0,0,0-.32.22,2.58,2.58,0,0,0-.29.3,2.81,2.81,0,0,0-.58,1.11,3.24,3.24,0,0,0-.09.67c0,1.56,0,3.13,0,4.69a4.37,4.37,0,0,0,.11.92,2.85,2.85,0,0,0,.71,1.34,2.42,2.42,0,0,0,.37.31,3.39,3.39,0,0,0,2.25.43,2.7,2.7,0,0,0,1.61-.66,2,2,0,0,0,.34-0.41A2.4,2.4,0,0,0,60.09,63a7.72,7.72,0,0,0,.07-1.14V61.32H58.24c0,0.23,0,.46,0,0.69s0,0.19,0,.29a2.76,2.76,0,0,1-.06.42,0.66,0.66,0,0,1-.1.24L58,63.06a0.94,0.94,0,0,1-.56.18H57.28a0.94,0.94,0,0,1-.66-0.2,0.87,0.87,0,0,1-.21-0.4,3.05,3.05,0,0,1-.08-0.79V60.36h3.84c0-1.06,0-2.11,0-3.17A3.74,3.74,0,0,0,60,56.11a2.15,2.15,0,0,0-1.29-1.32,3.53,3.53,0,0,0-1.16-.18H57.38Z" style="fill: none"/>
  <g>
    <path d="M64,47.4a5.44,5.44,0,0,1,5.76,5.76v9.6A5.44,5.44,0,0,1,64,68.52H35.17c-3.45,0-5.76-2.77-5.76-6.24V53.16a5.44,5.44,0,0,1,5.76-5.76H64Zm-19.2,6.72H42.85v8.64a1.72,1.72,0,0,0,.48,1.19,1.88,1.88,0,0,0,1.24.73,2.25,2.25,0,0,0,1.18-.21,2.44,2.44,0,0,0,.94-0.75v1h1.92V54.12H46.69V61.8a1.15,1.15,0,0,1-1,1,1,1,0,0,1-1-1V54.12Zm7.68-2.88H50.53V64.68h1.92v-1a2.35,2.35,0,0,0,1.92,1,2,2,0,0,0,1.37-.86,2.25,2.25,0,0,0,.55-1.54V56.52a2.78,2.78,0,0,0-.6-1.81,1.74,1.74,0,0,0-1.44-.64,2.05,2.05,0,0,0-.93.24,2.25,2.25,0,0,0-.86.77V51.24Zm-9.6,0H37.09v1.92H39V64.68h1.92V53.16h1.92V51.24Zm18.24,9.6v0.48a2.29,2.29,0,0,1-.19,1.18,0.91,0.91,0,0,1-.77.26,0.81,0.81,0,0,1-.75-0.31,2,2,0,0,1-.21-1.08V59.88H63v-3a2.67,2.67,0,0,0-.65-2.06,2.59,2.59,0,0,0-2-.7,3.16,3.16,0,0,0-2.2.68,2.82,2.82,0,0,0-.86,2.09v4.52A3.27,3.27,0,0,0,58,63.7a2.76,2.76,0,0,0,2.14.82,2.9,2.9,0,0,0,2.24-.78,3.15,3.15,0,0,0,.6-2.34V60.84H61.09ZM54.37,57c0-1-.43-1.44-1-1.44a1,1,0,0,0-1,1v5.76a0.85,0.85,0,0,0,1,.48,0.94,0.94,0,0,0,1-.94V57Zm6.72,1H59.17V57a1,1,0,0,1,1-1,0.92,0.92,0,0,1,1,1v1Z" style="fill: #191919"/>
    <path d="M43.81,31.08l-1.92,5.76L40,31.08H38l2.88,8.64v5.76h1.92V39.72l2.88-8.64H43.81ZM49.57,42.6a1,1,0,1,1-1.92,0V37.8a1,1,0,0,1,1.92,0v4.8Zm1.19-7a2.82,2.82,0,0,0-2.15-.69,2.89,2.89,0,0,0-2.15.67c-0.6.51-.77,0.9-0.73,2.21v4.8a2.66,2.66,0,0,0,.73,2.15,2.76,2.76,0,0,0,2.15.73,2.69,2.69,0,0,0,2.16-.73,2.54,2.54,0,0,0,.72-2.15V37.8A2.85,2.85,0,0,0,50.76,35.61Zm6.49-.69V42.6a1.14,1.14,0,0,1-1,1,0.88,0.88,0,0,1-1-1V34.92H53.41v8.64a2.07,2.07,0,0,0,1.92,1.92,2.41,2.41,0,0,0,1.92-1v1h1.92V34.92H57.25Z" style="fill: #191919"/>
  </g>
</svg>
