<?xml version="1.0" standalone="no"?>
<!DOCTYPE svg PUBLIC "-//W3C//DTD SVG 20010904//EN"
 "http://www.w3.org/TR/2001/REC-SVG-20010904/DTD/svg10.dtd">
<svg version="1.0" xmlns="http://www.w3.org/2000/svg"
 width="1079.000000pt" height="1079.000000pt" viewBox="0 0 1079.000000 1079.000000"
 preserveAspectRatio="xMidYMid meet">
<metadata>
Created by potrace 1.11, written by Peter Selinger 2001-2013
</metadata>
<g transform="translate(0.000000,1079.000000) scale(0.100000,-0.100000)"
fill="#000000" stroke="none">
<path d="M1270 10783 c-55 -6 -168 -26 -215 -37 -391 -98 -731 -371 -906 -731
-45 -94 -91 -218 -103 -275 -2 -14 -9 -47 -15 -75 -6 -27 -14 -86 -18 -130
-10 -102 -9 -8231 1 -8305 49 -365 211 -669 484 -902 34 -30 170 -128 176
-128 2 0 31 -15 64 -34 109 -62 305 -126 462 -152 65 -11 8270 -13 8363 -2 42
5 120 20 174 34 120 30 110 27 157 47 21 9 42 17 46 17 14 0 181 90 230 123
202 138 370 328 476 540 39 76 100 251 110 312 3 22 8 43 10 46 2 3 7 33 11
65 10 78 10 8334 0 8399 -47 296 -171 552 -370 761 -210 221 -474 360 -792
416 -54 9 -987 12 -4195 13 -2269 0 -4136 -1 -4150 -2z"/>
</g>
</svg>
