<?xml version="1.0" standalone="no"?>
<!DOCTYPE svg PUBLIC "-//W3C//DTD SVG 20010904//EN"
 "http://www.w3.org/TR/2001/REC-SVG-20010904/DTD/svg10.dtd">
<svg version="1.0" xmlns="http://www.w3.org/2000/svg"
 width="1062.000000pt" height="1062.000000pt" viewBox="0 0 1062.000000 1062.000000"
 preserveAspectRatio="xMidYMid meet">
<metadata>
Created by potrace 1.11, written by Peter Selinger 2001-2013
</metadata>
<g transform="translate(0.000000,1062.000000) scale(0.100000,-0.100000)"
fill="#000000" stroke="none">
<path d="M5098 8875 c-2 -1 -55 -5 -118 -9 -63 -3 -135 -8 -160 -10 -120 -12
-162 -17 -260 -31 -14 -2 -45 -7 -70 -10 -96 -12 -357 -65 -470 -95 -162 -43
-283 -78 -385 -112 -145 -48 -439 -164 -472 -185 -12 -8 -23 -13 -23 -9 0 7
-338 -162 -414 -206 -28 -17 -64 -38 -81 -47 -183 -99 -575 -375 -760 -536
-310 -270 -538 -508 -766 -801 -52 -67 -101 -131 -109 -144 -8 -12 -22 -32
-31 -44 -88 -119 -207 -308 -314 -499 -173 -308 -352 -738 -445 -1067 -122
-430 -180 -769 -206 -1210 -12 -205 -6 -640 11 -742 2 -13 6 -54 9 -93 4 -38
8 -81 10 -95 3 -14 7 -47 11 -75 35 -279 119 -646 215 -940 28 -85 57 -160 64
-167 10 -11 975 -13 4980 -12 4273 1 4969 3 4977 15 17 26 129 379 154 487 30
123 75 325 79 352 2 19 7 47 10 63 13 62 26 145 31 192 4 28 8 61 10 75 3 23
8 67 20 185 11 105 18 286 18 445 0 170 -10 459 -18 483 -2 7 -6 46 -9 87 -4
41 -8 86 -10 100 -3 14 -7 48 -10 75 -3 28 -8 61 -11 75 -2 14 -7 41 -9 60 -6
38 -22 130 -30 170 -3 14 -11 50 -17 80 -38 191 -142 548 -222 760 -27 72
-114 283 -127 309 -4 9 -40 82 -78 162 -70 145 -176 334 -266 479 -26 41 -52
84 -59 95 -7 11 -14 22 -17 25 -5 5 -37 51 -108 155 -66 97 -222 291 -352 439
-52 60 -379 387 -430 431 -20 17 -65 55 -100 86 -174 149 -443 345 -625 456
-431 262 -810 434 -1272 576 -83 26 -423 112 -478 121 -16 3 -70 12 -120 21
-133 24 -133 24 -220 35 -120 16 -143 19 -225 26 -41 3 -95 8 -120 10 -55 5
-577 13 -582 9z"/>
</g>
</svg>
