<?xml version="1.0" encoding="UTF-8"?>
<svg width="398px" height="228px" viewBox="0 0 398 228" version="1.1" xmlns="http://www.w3.org/2000/svg" xmlns:xlink="http://www.w3.org/1999/xlink">
    <!-- Generator: Sketch 50.2 (55047) - http://www.bohemiancoding.com/sketch -->
    <title>Group 2</title>
    <desc>Created with Sketch.</desc>
    <defs></defs>
    <g id="Page-1" stroke="none" stroke-width="1" fill="none" fill-rule="evenodd" opacity="0.0583147321">
        <g id="Third-Tier-Page" transform="translate(-683.000000, -177.000000)" fill="#FFFFFF" fill-rule="nonzero">
            <g id="Group-2" transform="translate(683.000000, 177.000000)">
                <polyline id="Shape" points="126 71 166 0 132.606607 70.8812709"></polyline>
                <polygon id="Shape" points="165 0 125.639775 70.9755336 39 227.287871 59.4484053 228 132.140713 70.8568454"></polygon>
                <path d="M122.56,122 L121,122" id="Shape"></path>
                <path d="M33.68,199 L32,199" id="Shape"></path>
                <polygon id="Shape" points="126 35 126 43 134.305556 43 139 35"></polygon>
                <polygon id="Shape" points="94 72 94 80 109.357143 80 114 72"></polygon>
                <polygon id="Shape" points="51 126 51 134 75.4395161 134 80 126"></polygon>
                <polygon id="Shape" points="40.173913 186 0 186 0 197 33.1130435 197 34.8173913 197 42 186"></polygon>
                <polygon id="Shape" points="150.345455 13.1184211 142.545455 13.1184211 140.772727 13 126 31 127.890909 31 138.881818 31 140.536364 31 152 13.1184211"></polygon>
                <polygon id="Shape" points="109.476703 52 94 71 116.179211 71 128 52.2467532"></polygon>
                <polygon id="Shape" points="70.4795918 99 51 123 81.8622449 122.763547 97 99"></polygon>
                <polygon id="Shape" points="58.3625731 156 25.380117 156 23.5087719 156 0 185 1.87134503 185 40 184.882114 41.754386 184.882114 60 156"></polygon>
                <polyline id="Shape" points="271 71 231 0 264.393393 70.8812709"></polyline>
                <polygon id="Shape" points="231 0 270.360225 70.9755336 357 227.287871 336.551595 228 263.859287 70.8568454"></polygon>
                <path d="M274,122 L275.56,122" id="Shape"></path>
                <path d="M363,199 L364.68,199" id="Shape"></path>
                <polygon id="Shape" points="270 35 270 43 262.373832 43 258 35"></polygon>
                <polygon id="Shape" points="303 72 303 80 287.733728 80 283 72"></polygon>
                <polygon id="Shape" points="345 126 345 134 320.658635 134 316 126"></polygon>
                <polygon id="Shape" points="357.704348 186 398 186 398 197 364.886957 197 363.182609 197 356 186"></polygon>
                <path d="M395,185 L396.92,185" id="Shape"></path>
                <polygon id="Shape" points="247.6621 13.1184211 255.378995 13.1184211 257.278539 13 272 31 270.219178 31 259.178082 31 257.39726 31 246 13.1184211"></polygon>
                <polygon id="Shape" points="287.578571 52 303 71 280.9 71 269 52.2467532"></polygon>
                <polygon id="Shape" points="326.520408 99 346 123 315.137755 122.763547 300 99"></polygon>
                <polygon id="Shape" points="337.809339 156 371.824903 156 373.634241 156 398 185 396.070039 185 356.626459 184.882114 354.937743 184.882114 336 156"></polygon>
                <polygon id="Shape" points="240.525424 43 241 43 241 35 240.525424 35 157.474576 35 157 35 157 43 157.474576 43"></polygon>
                <polygon id="Shape" points="254.763103 80 255 80 255 72 254.763103 72 142.236897 72 142 72 142 80 142.236897 80"></polygon>
                <polygon id="Shape" points="98.1179245 188 98 188 98 199.621053 98.1179245 199.621053 98.1179245 200 198 199.747368 297.882075 200 297.882075 199.621053 298 199.621053 298 188 297.882075 188"></polygon>
                <polygon id="Shape" points="99.6499705 185 296.467885 185 297.76429 185 298 185 287.039481 156 286.803771 156 109.314084 156 109.078374 156 98 185 98.3535651 185"></polygon>
                <polygon id="Shape" points="158.53267 31 238.46733 31 239.882102 31 240 31 233.161932 13 233.044034 13 231.629261 13 165.370739 13 163.955966 13 163.838068 13 157 31 157 31"></polygon>
                <polygon id="Shape" points="248.234244 52 149.121849 52 142 70 255 70"></polygon>
                <polygon id="Shape" points="274.526154 123 275 123 265.76 99 265.404615 99 130.595385 99 130.121538 99 121 123 121.473846 123"></polygon>
                <polygon id="Shape" points="275 134 275 126 274.408602 126 121.591398 126 121 126 121 134 121.591398 134 274.408602 134"></polygon>
            </g>
        </g>
    </g>
</svg>