<?xml version="1.0" encoding="UTF-8"?>
<svg width="34px" height="34px" viewBox="0 0 34 34" version="1.1" xmlns="http://www.w3.org/2000/svg" xmlns:xlink="http://www.w3.org/1999/xlink">
    <!-- Generator: Sketch 50.2 (55047) - http://www.bohemiancoding.com/sketch -->
    <title>Shape</title>
    <desc>Created with Sketch.</desc>
    <defs></defs>
    <g id="Page-1" stroke="none" stroke-width="1" fill="none" fill-rule="evenodd">
        <g id="search-white" fill="#6DAA87" fill-rule="nonzero">
            <path d="M33.8,30.42 L33.8,31.1 L31.1,33.8 L30.42,33.8 L19.75,23 L18.89,23.51 C15.4966747,25.4849874 11.3750218,25.7595534 7.74971306,24.2521159 C4.12440427,22.7446783 1.41257709,19.6286869 0.42,15.83 C0.26,15.23 0.14,14.63 0,14 L0,11.15 C0.0649336398,11.0019451 0.115174618,10.8478728 0.15,10.69 C0.932313461,5.66257035 4.66593522,1.60136867 9.61,0.4 C10.29,0.24 11,0.13 11.66,0 L13.35,0 C13.5935364,0.064362653 13.8406237,0.114447916 14.09,0.15 C20.6696584,0.98072127 25.4790925,6.76953105 25.09,13.39 C24.9158338,15.6438711 24.1763916,17.8174872 22.94,19.71 C23.2216121,19.8966264 23.4890107,20.1038603 23.74,20.33 C27.1,23.69 30.4533333,27.0533333 33.8,30.42 Z M21.69,12.63 C21.6899912,8.92735234 19.458495,5.589672 16.0369183,4.17460571 C12.6153416,2.75953943 8.67819921,3.54604727 6.06289802,6.16707748 C3.44759684,8.7881077 2.66970607,12.7269617 4.09225599,16.1454338 C5.51480591,19.5639059 8.85736119,21.7880932 12.56,21.78 C14.9840792,21.7773493 17.3078212,20.8118447 19.0200287,19.0958865 C20.7322361,17.3799283 21.6926536,15.0540792 21.69,12.63 Z" id="Shape"></path>
        </g>
    </g>
</svg>